<?xml version="1.0" encoding="UTF-8"?>
<svg xmlns="http://www.w3.org/2000/svg" viewBox="0 0 445.53 372.33">
  <defs>
    <style>
      .cls-1 {
        fill: #ddd;
      }

      .cls-2 {
        fill: #b26e60;
      }

      .cls-3 {
        fill: #efd289;
      }

      .cls-4 {
        fill: #5c7d9e;
      }

      .cls-5 {
        fill: #5b5a5a;
      }

      .cls-6, .cls-7 {
        fill: #fff;
      }

      .cls-8 {
        fill: #d7d9e4;
      }

      .cls-9 {
        fill: #9da59d;
      }

      .cls-10 {
        fill: #424f4f;
      }

      .cls-11 {
        fill: #3d3d3d;
      }

      .cls-12 {
        fill: #aedbed;
      }

      .cls-13 {
        fill: #02a8c4;
      }

      .cls-14 {
        fill: #d8d8d8;
      }

      .cls-15 {
        fill: #5e5d5d;
      }

      .cls-16 {
        fill: #aaa9a9;
      }

      .cls-17 {
        fill: #dd9505;
      }

      .cls-18 {
        fill: #434f59;
      }

      .cls-19 {
        fill: #809eba;
      }

      .cls-20 {
        fill: #49595a;
      }

      .cls-21 {
        fill: #586783;
      }

      .cls-22 {
        fill: #ffd805;
      }

      .cls-23 {
        fill: #7a7979;
      }

      .cls-24 {
        fill: #e2e2e2;
      }

      .cls-25 {
        fill: #68717e;
      }

      .cls-26 {
        fill: #dadce5;
      }

      .cls-27 {
        fill: #a0a0a0;
      }

      .cls-28 {
        fill: #d8b007;
      }

      .cls-29 {
        isolation: isolate;
      }

      .cls-30 {
        fill: #95cae5;
      }

      .cls-31 {
        fill: #6196c1;
      }

      .cls-32 {
        opacity: .2;
      }

      .cls-7 {
        mix-blend-mode: overlay;
        opacity: .3;
      }

      .cls-33, .cls-34 {
        fill: #c9c9c9;
      }

      .cls-35 {
        fill: #ddb133;
      }

      .cls-36 {
        fill: #d3a17d;
      }

      .cls-37 {
        fill: #60728c;
      }

      .cls-38 {
        fill: #fff444;
      }

      .cls-39 {
        fill: #363836;
      }

      .cls-40 {
        fill: #1e434c;
      }

      .cls-41 {
        fill: #e8e9ef;
      }

      .cls-34 {
        mix-blend-mode: multiply;
      }

      .cls-42 {
        fill: #cb8371;
      }

      .cls-43 {
        fill: #fcc491;
      }

      .cls-44 {
        fill: #ffd604;
      }

      .cls-45 {
        fill: #b8b8ba;
      }

      .cls-46 {
        fill: #ffcc29;
      }

      .cls-47 {
        fill: #ccd6d3;
      }

      .cls-48 {
        fill: #dae0de;
      }

      .cls-49 {
        fill: #b77808;
      }

      .cls-50 {
        fill: #1b545e;
      }

      .cls-51, .cls-52 {
        opacity: .4;
      }

      .cls-53 {
        fill: #444343;
      }

      .cls-54 {
        fill: #323230;
      }

      .cls-55 {
        fill: #eaeaea;
      }

      .cls-56 {
        fill: #8b631f;
      }

      .cls-57 {
        fill: #9da3a1;
      }

      .cls-58 {
        fill: #131314;
      }

      .cls-52 {
        fill: #afd9e3;
      }

      .cls-59 {
        fill: #edc107;
      }

      .cls-60 {
        fill: #3f3f3d;
      }

      .cls-61 {
        fill: #c19929;
      }

      .cls-62 {
        opacity: .1;
      }

      .cls-63 {
        fill: #eab488;
      }

      .cls-64 {
        fill: #ced5d7;
      }

      .cls-65 {
        fill: #bfc9c6;
      }

      .cls-66 {
        fill: #52617a;
      }

      .cls-67 {
        fill: #353535;
      }

      .cls-68 {
        fill: #474747;
      }

      .cls-69 {
        fill: #bcbcbc;
      }

      .cls-70 {
        fill: #352f33;
      }

      .cls-71 {
        fill: #03bce8;
      }

      .cls-72 {
        fill: #c19a36;
      }

      .cls-73 {
        fill: #e8b182;
      }

      .cls-74 {
        fill: #008b99;
      }

      .cls-75 {
        fill: #efb789;
      }

      .cls-76 {
        fill: #e6e7e8;
      }

      .cls-77 {
        fill: #cde0cd;
      }

      .cls-78 {
        fill: #2fcfea;
      }

      .cls-79 {
        fill: #d39e76;
      }

      .cls-80 {
        fill: #995e55;
      }

      .cls-81 {
        fill: #ecf0f1;
      }

      .cls-82 {
        fill: #fdee4a;
      }

      .cls-83 {
        fill: #c6c5c5;
      }

      .cls-84 {
        fill: #a8deff;
      }

      .cls-85 {
        fill: #b0bdce;
      }

      .cls-86 {
        fill: #ffd200;
      }

      .cls-87 {
        fill: #c4c4c4;
      }

      .cls-88 {
        fill: #22231f;
      }

      .cls-89 {
        fill: #2f302b;
      }

      .cls-90 {
        fill: #a8c7e2;
      }
    </style>
  </defs>
  <g class="cls-29">
    <g id="Layer_1" data-name="Layer 1">
      <g>
        <path class="cls-46" d="m223.55,0C100.95,0,1.57,98.84,1.57,220.75c0,58.7,23.04,112.04,60.62,151.58h322.73c37.57-39.54,60.62-92.88,60.62-151.58C445.53,98.84,346.14,0,223.55,0Z"/>
        <path class="cls-61" d="m13.98,205.55h46.75v2.89h8.75v1.92h30.7v-15.36h52.13v31.56h18.03v-21.01h46.75v16.75h39.46v-27.29h60.51v23.19h23.75v16.27h8.38v-26.92h-.26v-22.24h-23.75v-31.69h-60.51v37.3l-14.87-.38v-66.71h-54.37v44.2h-16.97v28.71h-18.03v-43.12h-52.13v20.98h-30.7v-2.63h-8.75v-3.95H22.1v22.89H3.75c-1.43,10.15-2.18,20.52-2.18,31.06,0,.11,0,.21,0,.32h12.41v-16.75Z"/>
        <path class="cls-35" d="m69.18,329.51h30.57v1.13h41.8v.91h42.43v-2.04h71.46v1.13h29.19v.79h43.32v.12h92.28c16.05-32.34,25.13-69.12,25.13-108.14,0-1.77-.03-3.53-.06-5.29h-34.01v20h-9.61v-31.1h-54v29.55h-8.34v-17.14h-23.65v-24.43h-60.24v28.74h-39.29v-17.64h-46.54v22.13h-17.95v-33.23h-51.91v16.17h-30.57v-2.03h-8.71v-3.04H13.93v17.64H1.57c.05,38.53,8.96,74.87,24.68,106.89h42.93v-1.13Z"/>
        <g>
          <rect class="cls-23" x="144.47" y="224.98" width="114.98" height="23.87"/>
          <rect class="cls-23" x="180.97" y="199.67" width="76.08" height="22.61"/>
          <rect class="cls-15" x="186.78" y="199.5" width="68.72" height="1.99"/>
          <rect class="cls-15" x="149.08" y="227.39" width="107.84" height="1.99"/>
          <rect class="cls-15" x="156.36" y="252.75" width="91.95" height="21.11"/>
          <rect class="cls-53" x="156.48" y="254.27" width="91.86" height="3.18"/>
          <rect class="cls-11" x="192.56" y="202.75" width="14.75" height="14.57"/>
          <rect class="cls-68" x="193.91" y="202.75" width="13.39" height="14.57"/>
          <rect class="cls-11" x="230.93" y="202.56" width="14.75" height="14.57"/>
          <rect class="cls-68" x="232.29" y="202.56" width="13.39" height="14.57"/>
          <rect class="cls-11" x="230.93" y="202.56" width="14.75" height="14.57"/>
          <rect class="cls-68" x="232.29" y="202.56" width="13.39" height="14.57"/>
          <rect class="cls-68" x="166.44" y="219.33" width="35.97" height="3.77"/>
          <rect class="cls-68" x="202.86" y="246.46" width="36.72" height="2.76"/>
          <rect class="cls-25" x="144.92" y="180.26" width="5.72" height="93.46"/>
          <rect class="cls-18" x="144.02" y="180.26" width="5.12" height="93.46"/>
          <rect class="cls-25" x="181.04" y="180.26" width="5.72" height="93.46"/>
          <rect class="cls-18" x="180.14" y="180.26" width="5.12" height="93.46"/>
          <rect class="cls-25" x="216.26" y="199.36" width="5.72" height="74.37"/>
          <rect class="cls-18" x="215.35" y="199.36" width="5.12" height="74.37"/>
          <rect class="cls-18" x="254.19" y="178.63" width="5.72" height="95.09"/>
          <rect class="cls-18" x="253.28" y="178.63" width="5.12" height="95.09"/>
          <rect class="cls-25" x="275.4" y="160.67" width="5.72" height="113.06"/>
          <rect class="cls-18" x="274.5" y="160.67" width="5.12" height="113.06"/>
          <rect class="cls-25" x="139.05" y="248.72" width="128.22" height="5.78"/>
          <rect class="cls-18" x="139.05" y="251.49" width="128.22" height="3.02"/>
          <rect class="cls-25" x="139.05" y="221.59" width="141.01" height="5.78"/>
          <rect class="cls-18" x="139.05" y="224.35" width="141.01" height="3.01"/>
          <rect class="cls-18" x="139.05" y="194.08" width="148.39" height="5.78"/>
          <rect class="cls-18" x="139.05" y="196.84" width="148.39" height="3.01"/>
          <rect class="cls-11" x="156.21" y="230.64" width="14.75" height="14.57"/>
          <rect class="cls-68" x="157.56" y="230.64" width="13.39" height="14.57"/>
          <rect class="cls-11" x="194.13" y="230.64" width="14.75" height="14.57"/>
          <rect class="cls-68" x="195.49" y="230.64" width="13.39" height="14.57"/>
          <rect class="cls-11" x="230.71" y="230.64" width="14.75" height="14.57"/>
          <rect class="cls-68" x="232.06" y="230.64" width="13.4" height="14.57"/>
          <rect class="cls-25" x="141.91" y="183.84" width="144.93" height=".94"/>
          <rect class="cls-25" x="141.91" y="186.86" width="144.93" height=".94"/>
          <rect class="cls-25" x="177.36" y="207.99" width="107.9" height="1.27"/>
          <rect class="cls-18" x="177.36" y="211.75" width="107.9" height="1.27"/>
        </g>
        <path class="cls-72" d="m419.92,209.56h-9.46v-40.35h-53.19v37.2h45.23v29.53h9.46v-18.99h33.5c-.25-11.34-1.34-22.48-3.2-33.34h-22.34v25.95Z"/>
        <path class="cls-52" d="m142.98,323.8h-41.81v-1.08h-30.58v1.08H27.64c.15.29.3.57.45.86h114.89v-.86Z"/>
        <polygon class="cls-52" points="286.11 324.56 286.11 323.8 256.91 323.8 256.91 322.73 217.61 322.73 185.42 322.73 185.42 324.67 329.45 324.67 329.45 324.56 286.11 324.56"/>
        <g>
          <rect class="cls-3" x="324.6" y="99.2" width="45.64" height="247.86"/>
          <polygon class="cls-35" points="324.6 343.01 370.24 318.54 353.71 318.69 324.62 333.74 324.6 343.01"/>
          <polygon class="cls-35" points="324.55 331.02 348.12 318.74 342.06 318.61 324.55 327.22 324.55 331.02"/>
          <polygon class="cls-35" points="324.6 308.57 370.24 284.1 353.71 284.25 324.62 299.3 324.6 308.57"/>
          <polygon class="cls-35" points="324.55 296.58 348.12 284.29 342.06 284.17 324.55 292.78 324.55 296.58"/>
          <polygon class="cls-35" points="324.6 274.13 370.24 249.66 353.71 249.81 324.62 264.86 324.6 274.13"/>
          <polygon class="cls-35" points="324.55 262.13 348.12 249.85 342.06 249.72 324.55 258.34 324.55 262.13"/>
          <polygon class="cls-35" points="324.6 241.71 370.24 217.24 353.71 217.39 324.62 232.44 324.6 241.71"/>
          <polygon class="cls-35" points="324.55 229.72 348.12 217.43 342.06 217.31 324.55 225.92 324.55 229.72"/>
          <polygon class="cls-35" points="324.6 207.26 370.24 182.79 353.71 182.95 324.62 197.99 324.6 207.26"/>
          <polygon class="cls-35" points="324.55 195.27 348.12 182.99 342.06 182.86 324.55 191.47 324.55 195.27"/>
          <polygon class="cls-35" points="324.6 172.82 370.24 148.35 353.71 148.5 324.62 163.55 324.6 172.82"/>
          <polygon class="cls-35" points="324.55 160.83 348.12 148.55 342.06 148.42 324.55 157.03 324.55 160.83"/>
          <polygon class="cls-35" points="324.6 144.45 370.24 119.98 353.71 120.14 324.62 135.19 324.6 144.45"/>
          <polygon class="cls-35" points="324.55 132.46 348.12 120.18 342.06 120.05 324.55 128.66 324.55 132.46"/>
          <polygon class="cls-35" points="324.6 116.09 370.24 91.62 353.71 91.77 324.62 106.82 324.6 116.09"/>
          <polygon class="cls-35" points="324.55 104.1 348.12 91.81 342.06 91.69 324.55 100.3 324.55 104.1"/>
          <g>
            <rect class="cls-18" x="370.24" y="99.2" width="25.86" height="247.86"/>
            <polygon class="cls-62" points="370.24 117.26 396.1 99.2 370.24 99.2 370.24 117.26"/>
            <polygon class="cls-62" points="370.24 143.61 395.9 122.08 370.24 122.58 370.24 143.61"/>
            <polygon class="cls-62" points="370.24 178.05 395.9 148.67 370.24 149.36 370.24 178.05"/>
            <polygon class="cls-62" points="370.24 212.49 395.9 183.12 370.24 183.81 370.24 212.49"/>
            <polygon class="cls-62" points="370.24 244.66 395.9 217.56 370.24 218.2 370.24 244.66"/>
            <polygon class="cls-62" points="370.24 279.35 395.9 249.98 370.24 250.67 370.24 279.35"/>
            <polygon class="cls-62" points="370.24 313.8 395.9 284.42 370.24 285.11 370.24 313.8"/>
            <polygon class="cls-62" points="370.24 347.23 395.9 317.85 370.24 318.54 370.24 347.23"/>
          </g>
          <g>
            <rect class="cls-18" x="399.67" y="99.2" width="25.85" height="247.86"/>
            <polygon class="cls-62" points="399.67 117.26 425.53 99.2 399.67 99.2 399.67 117.26"/>
            <polygon class="cls-62" points="399.67 143.61 425.33 122.08 399.67 122.58 399.67 143.61"/>
            <polygon class="cls-62" points="399.67 178.05 425.33 148.67 399.67 149.36 399.67 178.05"/>
            <polygon class="cls-62" points="399.67 212.49 425.33 183.12 399.67 183.81 399.67 212.49"/>
            <polygon class="cls-62" points="399.67 244.66 425.33 217.56 399.67 218.2 399.67 244.66"/>
            <polygon class="cls-62" points="399.67 279.35 425.33 249.98 399.67 250.67 399.67 279.35"/>
            <polygon class="cls-62" points="399.67 313.8 425.33 284.42 399.67 285.11 399.67 313.8"/>
            <polygon class="cls-62" points="399.67 347.23 425.33 317.85 399.67 318.54 399.67 347.23"/>
          </g>
          <rect class="cls-25" x="396" y="99.2" width="3.55" height="247.86"/>
          <g>
            <rect class="cls-18" x="298.75" y="99.2" width="25.85" height="247.86"/>
            <polygon class="cls-62" points="298.75 117.26 324.6 99.2 298.75 99.2 298.75 117.26"/>
            <polygon class="cls-62" points="298.75 143.61 324.41 122.08 298.75 122.58 298.75 143.61"/>
            <polygon class="cls-62" points="298.75 178.05 324.41 148.67 298.75 149.36 298.75 178.05"/>
            <polygon class="cls-62" points="298.75 212.49 324.41 183.12 298.75 183.81 298.75 212.49"/>
            <polygon class="cls-62" points="298.75 244.66 324.41 217.56 298.75 218.2 298.75 244.66"/>
            <polygon class="cls-62" points="298.75 279.35 324.41 249.98 298.75 250.67 298.75 279.35"/>
            <polygon class="cls-62" points="298.75 313.8 324.41 284.42 298.75 285.11 298.75 313.8"/>
            <polygon class="cls-62" points="298.75 347.23 324.41 317.85 298.75 318.54 298.75 347.23"/>
          </g>
          <rect class="cls-25" x="295.67" y="99.2" width="3.07" height="247.86"/>
          <rect class="cls-25" x="297.59" y="117.44" width="127.83" height="4.73"/>
          <rect class="cls-25" x="297.59" y="143.78" width="127.83" height="4.73"/>
          <rect class="cls-25" x="297.59" y="178.22" width="127.83" height="4.73"/>
          <rect class="cls-25" x="297.59" y="212.66" width="127.77" height="4.73"/>
          <rect class="cls-64" x="295.06" y="84.34" width="132.12" height="14.86"/>
          <rect class="cls-51" x="295.06" y="91.77" width="132.13" height="7.43"/>
          <rect class="cls-85" x="299.09" y="117.26" width="126.21" height="2.28"/>
          <rect class="cls-85" x="299.09" y="143.61" width="126.21" height="2.28"/>
          <rect class="cls-85" x="299.09" y="178.05" width="126.21" height="2.28"/>
          <rect class="cls-85" x="299.09" y="212.49" width="126.15" height="2.28"/>
          <rect class="cls-25" x="297.59" y="245.08" width="127.74" height="4.73"/>
          <rect class="cls-85" x="299.09" y="244.92" width="126.11" height="2.27"/>
          <rect class="cls-25" x="297.59" y="279.53" width="127.99" height="4.72"/>
          <rect class="cls-85" x="299.1" y="279.35" width="126.37" height="2.28"/>
          <rect class="cls-25" x="297.59" y="313.97" width="128.09" height="4.72"/>
          <rect class="cls-85" x="299.1" y="313.8" width="126.46" height="2.28"/>
          <rect class="cls-25" x="424.15" y="99.2" width="3.07" height="247.86"/>
          <rect class="cls-7" x="399.15" y="84.34" width="28.36" height="262.72"/>
        </g>
        <g>
          <rect class="cls-27" x="112.63" y="115.36" width="22.85" height="158.7"/>
          <rect class="cls-15" x="27.59" y="115.36" width="85.93" height="7.92"/>
          <rect class="cls-53" x="23.92" y="123.28" width="89.73" height="166.35"/>
          <rect class="cls-68" x="11.48" y="283.17" width="114.02" height="44.49"/>
          <rect class="cls-68" x="17.71" y="273.98" width="99.69" height="9.41"/>
          <rect class="cls-11" x="14.89" y="291.58" width="14.82" height="18.69"/>
          <rect class="cls-68" x="16.26" y="291.58" width="13.45" height="18.69"/>
          <rect class="cls-11" x="39.06" y="291.58" width="14.83" height="18.69"/>
          <rect class="cls-68" x="40.42" y="291.58" width="13.46" height="18.69"/>
          <rect class="cls-11" x="63.23" y="291.58" width="14.82" height="18.69"/>
          <rect class="cls-68" x="64.59" y="291.58" width="13.46" height="18.69"/>
          <rect class="cls-11" x="85.67" y="291.58" width="14.82" height="18.69"/>
          <rect class="cls-68" x="87.03" y="291.58" width="13.46" height="18.69"/>
          <rect class="cls-11" x="108.11" y="291.58" width="14.82" height="18.69"/>
          <rect class="cls-9" x="109.47" y="291.58" width="13.46" height="18.69"/>
          <rect class="cls-30" x="24.04" y="128.71" width="89.66" height="17.86"/>
          <polygon class="cls-12" points="24.04 146.57 69.9 128.71 106.01 128.71 65.76 146.76 24.04 146.57"/>
          <polygon class="cls-12" points="113.69 128.71 75.82 146.76 84.7 146.38 113.69 133.13 113.69 128.71"/>
          <rect class="cls-30" x="24.04" y="152.05" width="89.66" height="17.87"/>
          <polygon class="cls-12" points="24.04 169.92 69.9 152.05 106.01 152.05 65.76 170.11 24.04 169.92"/>
          <polygon class="cls-12" points="113.69 152.05 75.82 170.11 84.7 169.72 113.69 156.47 113.69 152.05"/>
          <rect class="cls-30" x="24.04" y="176.23" width="89.66" height="17.87"/>
          <polygon class="cls-12" points="24.04 194.1 69.9 176.23 106.01 176.23 65.76 194.29 24.04 194.1"/>
          <polygon class="cls-12" points="113.69 176.23 75.82 194.29 84.7 193.91 113.69 180.65 113.69 176.23"/>
          <rect class="cls-30" x="24.04" y="200.41" width="89.66" height="17.87"/>
          <polygon class="cls-12" points="24.04 218.28 69.9 200.41 106.01 200.41 65.76 218.47 24.04 218.28"/>
          <polygon class="cls-12" points="113.69 200.41 75.82 218.47 84.7 218.08 113.69 204.83 113.69 200.41"/>
          <rect class="cls-30" x="24.04" y="223.76" width="89.66" height="17.87"/>
          <polygon class="cls-12" points="24.04 241.63 69.9 223.76 106.01 223.76 65.76 241.82 24.04 241.63"/>
          <polygon class="cls-12" points="113.69 223.76 75.82 241.82 84.7 241.44 113.69 228.18 113.69 223.76"/>
          <rect class="cls-30" x="24.04" y="247.94" width="89.66" height="17.87"/>
          <polygon class="cls-12" points="24.04 265.81 69.9 247.94 106.01 247.94 65.76 266 24.04 265.81"/>
          <polygon class="cls-12" points="113.69 247.94 75.82 266 84.7 265.61 113.69 252.36 113.69 247.94"/>
          <rect class="cls-16" x="18.89" y="145.93" width="94.8" height="2.78"/>
          <rect class="cls-87" x="18.89" y="145.93" width="94.75" height="1.39"/>
          <rect class="cls-16" x="18.89" y="169.29" width="97.66" height="2.78"/>
          <rect class="cls-87" x="18.89" y="169.29" width="97.79" height="1.39"/>
          <rect class="cls-16" x="18.89" y="193.46" width="94.86" height="2.78"/>
          <rect class="cls-87" x="18.89" y="193.46" width="94.98" height="1.39"/>
          <rect class="cls-16" x="18.89" y="217.65" width="97.24" height="2.77"/>
          <rect class="cls-87" x="18.89" y="217.65" width="97.36" height="1.39"/>
          <rect class="cls-16" x="18.89" y="240.99" width="97.24" height="2.78"/>
          <rect class="cls-87" x="18.89" y="240.99" width="97.36" height="1.39"/>
          <rect class="cls-16" x="18.89" y="265.17" width="97.89" height="2.78"/>
          <rect class="cls-87" x="18.89" y="265.17" width="98.02" height="1.39"/>
          <rect class="cls-5" x="117.4" y="273.98" width="19.58" height="9.28"/>
          <rect class="cls-5" x="125.5" y="283.17" width="15.27" height="44.5"/>
          <rect class="cls-87" x="113.53" y="115.36" width="22.05" height="7.81"/>
          <rect class="cls-15" x="113.53" y="123.28" width="21.9" height="5.41"/>
          <rect class="cls-15" x="113.67" y="146.67" width="21.86" height="5.41"/>
          <rect class="cls-76" x="113.64" y="145.93" width="21.89" height="1.48"/>
          <rect class="cls-83" x="113.64" y="147.32" width="21.94" height="1.41"/>
          <rect class="cls-84" x="113.69" y="128.71" width="21.73" height="17.27"/>
          <rect class="cls-84" x="113.69" y="152.09" width="21.73" height="17.75"/>
          <rect class="cls-84" x="113.69" y="175.74" width="21.73" height="17.75"/>
          <rect class="cls-15" x="113.67" y="194.75" width="21.86" height="5.56"/>
          <rect class="cls-76" x="113.64" y="193.5" width="21.89" height="1.52"/>
          <rect class="cls-83" x="113.64" y="194.93" width="21.94" height="1.44"/>
          <rect class="cls-84" x="113.69" y="200.31" width="21.74" height="17.34"/>
          <rect class="cls-15" x="113.67" y="218.45" width="21.85" height="5.32"/>
          <rect class="cls-76" x="113.69" y="217.66" width="21.88" height="1.45"/>
          <rect class="cls-83" x="113.69" y="219.02" width="21.94" height="1.38"/>
          <rect class="cls-84" x="113.77" y="223.76" width="21.74" height="17.85"/>
          <rect class="cls-84" x="113.69" y="247.95" width="21.74" height="17.85"/>
          <rect class="cls-15" x="113.67" y="242.48" width="21.85" height="5.47"/>
          <rect class="cls-76" x="113.65" y="240.98" width="21.89" height="1.5"/>
          <rect class="cls-83" x="113.65" y="242.38" width="21.94" height="1.42"/>
          <rect class="cls-15" x="113.71" y="266.63" width="21.85" height="5.47"/>
          <rect class="cls-76" x="113.69" y="265.12" width="21.88" height="1.5"/>
          <rect class="cls-83" x="113.69" y="266.52" width="21.94" height="1.42"/>
          <rect class="cls-15" x="113.67" y="170.56" width="21.86" height="5.56"/>
          <rect class="cls-76" x="113.64" y="169.31" width="21.89" height="1.52"/>
          <rect class="cls-83" x="113.64" y="170.74" width="21.94" height="1.44"/>
          <rect class="cls-15" x="134.28" y="115.36" width="2.19" height="158.97"/>
          <rect class="cls-15" x="113.83" y="115.36" width="2.29" height="152.66"/>
          <rect class="cls-53" x="111.65" y="115.46" width="2.29" height="152.66"/>
        </g>
        <path class="cls-1" d="m147.87,94.82H2.58c-7.25-9.35,2.07-19.72,12.01-13.88.98-7.56,7.54-12.99,15.62-14.73,7.19-2.05,12.42-1.43,17.88,3.72,1.48-3.98,6.32-4.08,11.54-4.51,6.77-.5,13.07,1.01,18.06,7.95,7.89-6.72,22.62,1.1,33.04,8.03,18.82-11.01,29.69,6.67,37.13,13.42Z"/>
        <path class="cls-55" d="m420.61,68.96h-90.93c-2.14-2.92-.83-6.42.8-8.18,7.38-7.92,11.33-3.01,17.07.2,1.5-4.37,7.31-7.32,12.66-5.82,4.39,1.23,7.24,3.79,10.01,6.42,2.41-5.32,15.13-4.35,22.65-.36,13.84-7.9,23.47,1.91,27.75,7.73Z"/>
        <path class="cls-1" d="m257.05,75.88h-66.47c-1.56-2.14-.74-4.83.58-5.98,3.66-3.17,8.28-2.2,12.47.15,1.09-3.19,5.34-5.35,9.25-4.25,3.21.9,5.57,2.42,7.59,4.34,2-7.77,12.56-3.81,18.06-.89,12.85-5.74,15.38,2.38,18.5,6.63Z"/>
        <path class="cls-1" d="m300,35.62h-145.29c-7.25-9.35,2.75-20.64,12.7-14.8.98-7.56,6.85-12.08,14.94-13.82,7.19-2.05,13.79-.74,19.25,4.41,1.48-3.98,4.95-4.76,10.17-5.19,6.77-.5,16.06,5.6,21.04,12.54,7.89-6.72,19.66-2.3,30.09,4.63,20.62-13.12,29.66,5.48,37.1,12.23Z"/>
        <g class="cls-62">
          <polygon points="357.57 328.07 305.49 327.86 305.22 328.6 357.57 328.6 357.57 328.07"/>
        </g>
        <polygon class="cls-32" points="361.05 254.86 392.1 335.65 360.96 341.09 361.05 254.86"/>
        <g>
          <rect class="cls-2" x="23.39" y="319.38" width="3.11" height="11.6"/>
          <g>
            <polygon class="cls-43" points="39.64 319.38 52.25 319.53 52.19 331.95 39.78 331.95 39.64 319.38"/>
            <polygon class="cls-43" points="39.78 331.95 30.02 331.8 30.24 319.58 39.78 319.38 39.78 331.95"/>
          </g>
          <polygon class="cls-2" points="39.78 331.95 36.68 331.88 36.47 319.48 39.78 319.38 39.78 331.95"/>
          <polygon class="cls-43" points="26.38 319.32 39.23 319.41 39.23 331.91 26.52 331.89 26.38 319.32"/>
          <polygon class="cls-42" points="26.52 331.89 16.9 331.89 16.97 319.52 26.52 319.32 26.52 331.89"/>
          <polygon class="cls-63" points="34.61 321.32 30.46 321.27 30.45 319.34 34.61 319.38 34.61 321.32"/>
          <polygon class="cls-63" points="48.37 321.42 44.22 321.38 44.2 319.44 48.37 319.49 48.37 321.42"/>
          <polygon class="cls-43" points="45.63 331.69 58.24 331.84 58.16 343.87 45.77 344.07 45.63 331.69"/>
          <polygon class="cls-42" points="45.77 344.07 36.15 344.07 36.22 331.89 45.77 331.69 45.77 344.07"/>
          <polygon class="cls-2" points="45.77 344.07 42.55 344.04 42.65 331.68 45.76 331.68 45.77 344.07"/>
          <rect class="cls-2" x="16.44" y="331.57" width="3.11" height="11.6"/>
          <g>
            <polygon class="cls-43" points="32.69 331.57 45.3 331.72 45.23 344.14 32.83 344.13 32.69 331.57"/>
            <polygon class="cls-43" points="32.83 344.13 23.06 343.98 23.28 331.77 32.83 331.57 32.83 344.13"/>
          </g>
          <polygon class="cls-2" points="32.83 344.13 29.72 344.06 29.51 331.66 32.83 331.57 32.83 344.13"/>
          <polygon class="cls-43" points="19.42 331.5 32.27 331.59 32.27 344.09 19.57 344.07 19.42 331.5"/>
          <polygon class="cls-42" points="19.57 344.07 9.94 344.07 10.01 331.71 19.57 331.5 19.57 344.07"/>
          <polygon class="cls-63" points="27.66 333.5 23.51 333.45 23.49 331.52 27.66 331.57 27.66 333.5"/>
          <polygon class="cls-63" points="41.41 333.61 37.27 333.56 37.25 331.63 41.41 331.67 41.41 333.61"/>
          <polygon class="cls-63" points="54.59 333.76 50.44 333.71 50.42 331.78 54.59 331.82 54.59 333.76"/>
          <polygon class="cls-75" points="47.5 343.73 61.55 343.9 61.47 357.31 47.65 357.53 47.5 343.73"/>
          <polygon class="cls-42" points="47.65 357.53 36.93 357.53 37.01 343.95 47.65 343.73 47.65 357.53"/>
          <polygon class="cls-2" points="47.65 357.53 44.06 357.51 44.17 343.72 47.64 343.72 47.65 357.53"/>
          <rect class="cls-2" x="14.93" y="343.55" width="3.47" height="12.93"/>
          <g>
            <polygon class="cls-75" points="33.04 343.55 47.1 343.72 47.02 357.56 33.2 357.55 33.04 343.55"/>
            <polygon class="cls-42" points="33.2 357.55 22.31 357.39 22.56 343.77 33.2 343.55 33.2 357.55"/>
          </g>
          <polygon class="cls-2" points="33.2 357.55 29.73 357.47 29.5 343.66 33.2 343.55 33.2 357.55"/>
          <polygon class="cls-75" points="18.25 343.48 32.58 343.58 32.58 357.51 18.41 357.49 18.25 343.48"/>
          <polygon class="cls-42" points="18.41 357.49 7.69 357.49 7.77 343.7 18.41 343.48 18.41 357.49"/>
          <polygon class="cls-36" points="27.43 345.7 22.81 345.65 22.79 343.5 27.43 343.55 27.43 345.7"/>
          <polygon class="cls-36" points="42.77 345.82 38.14 345.77 38.12 343.61 42.77 343.66 42.77 345.82"/>
          <polygon class="cls-36" points="57.45 345.99 52.83 345.94 52.8 343.78 57.45 343.83 57.45 345.99"/>
          <polygon class="cls-2" points="16.87 331.54 26.55 331.54 26.52 319.32 16.87 331.54"/>
          <polygon class="cls-2" points="19.54 331.57 19.5 343.48 9.94 343.72 19.54 331.57"/>
          <polygon class="cls-2" points="18.39 343.55 18.41 357.49 7.69 357.49 18.39 343.55"/>
        </g>
        <g>
          <rect class="cls-14" x="151.64" y="254.86" width="209.32" height="86.23"/>
          <rect class="cls-21" x="253.08" y="271.64" width="2.02" height="67.76"/>
          <rect class="cls-21" x="239.85" y="271.83" width="2.02" height="67.57"/>
          <rect class="cls-45" x="254.41" y="271.64" width="1.11" height="67.76"/>
          <rect class="cls-45" x="241.5" y="271.83" width="1.1" height="67.76"/>
          <rect class="cls-21" x="240.03" y="292.65" width="13.7" height="1.95"/>
          <rect class="cls-21" x="240.03" y="281.81" width="13.7" height="1.96"/>
          <rect class="cls-21" x="240.03" y="315.22" width="13.7" height="1.96"/>
          <rect class="cls-21" x="240.03" y="327.85" width="13.7" height="1.96"/>
          <rect class="cls-21" x="240.03" y="303.48" width="13.42" height="1.95"/>
          <rect class="cls-41" x="241.52" y="317.19" width="11.58" height=".45"/>
          <rect class="cls-45" x="241.52" y="329.83" width="11.58" height=".45"/>
          <rect class="cls-45" x="241.52" y="305.46" width="11.58" height=".45"/>
          <rect class="cls-41" x="241.52" y="294.63" width="11.58" height=".45"/>
          <rect class="cls-45" x="241.52" y="283.79" width="11.58" height=".45"/>
          <polygon class="cls-63" points="223.85 283.46 232.88 283.59 232.82 294.35 223.95 294.53 223.85 283.46"/>
          <polygon class="cls-42" points="223.95 294.53 217.07 294.53 217.12 283.64 223.95 283.46 223.95 294.53"/>
          <polygon class="cls-2" points="223.95 283.46 217.11 293.79 217.12 283.64 223.95 283.46"/>
          <g>
            <polygon class="cls-43" points="241.09 283.37 250.12 283.5 250.07 294.2 241.19 294.37 241.09 283.37"/>
            <polygon class="cls-42" points="241.19 294.37 234.31 294.37 234.36 283.55 241.19 283.37 241.19 294.37"/>
          </g>
          <rect class="cls-2" x="238.96" y="283.42" width="2.22" height="10.95"/>
          <g>
            <polygon class="cls-43" points="231.67 283.24 240.69 283.38 240.64 294.35 231.76 294.53 231.67 283.24"/>
            <polygon class="cls-42" points="231.76 294.53 224.89 294.53 224.93 283.43 231.76 283.24 231.76 294.53"/>
          </g>
          <polygon class="cls-2" points="231.76 283.34 224.92 293.77 224.93 283.51 231.76 283.34"/>
          <polygon class="cls-63" points="223.86 272.5 232.81 272.63 232.76 283.39 223.96 283.57 223.86 272.5"/>
          <polygon class="cls-42" points="223.96 283.57 217.13 283.57 217.18 272.68 223.96 272.5 223.96 283.57"/>
          <polygon class="cls-2" points="223.96 272.5 217.17 282.82 217.18 272.68 223.96 272.5"/>
          <g>
            <polygon class="cls-43" points="241.02 272.41 250.04 272.54 250 283.23 241.12 283.41 241.02 272.41"/>
            <polygon class="cls-42" points="241.12 283.41 234.24 283.41 234.28 272.59 241.12 272.41 241.12 283.41"/>
          </g>
          <rect class="cls-2" x="238.88" y="272.46" width="2.23" height="10.94"/>
          <g>
            <polygon class="cls-43" points="231.59 272.28 240.62 272.42 240.57 283.39 231.7 283.57 231.59 272.28"/>
            <polygon class="cls-42" points="231.7 283.57 224.81 283.57 224.86 272.46 231.7 272.28 231.7 283.57"/>
          </g>
          <polygon class="cls-2" points="231.7 272.28 224.84 282.81 224.86 272.46 231.7 272.28"/>
          <rect class="cls-80" x="231.67" y="283.24" width="18.39" height=".51"/>
          <rect class="cls-80" x="217.12" y="283.21" width="14.63" height=".54"/>
          <polygon class="cls-63" points="237.76 285.96 233.99 285.97 233.94 283.77 237.73 283.76 237.76 285.96"/>
          <polygon class="cls-63" points="247.68 285.96 243.91 285.94 243.87 283.74 247.66 283.76 247.68 285.96"/>
          <polygon class="cls-63" points="237.81 274.57 234.04 274.58 233.98 272.38 237.77 272.36 237.81 274.57"/>
          <polygon class="cls-63" points="247.63 274.71 243.85 274.68 243.83 272.48 247.62 272.5 247.63 274.71"/>
          <polygon class="cls-63" points="222.46 308.96 229.64 309.07 229.61 317.63 222.55 317.77 222.46 308.96"/>
          <polygon class="cls-42" points="222.55 317.77 217.07 317.77 217.11 309.1 222.55 308.96 222.55 317.77"/>
          <polygon class="cls-2" points="222.55 308.96 217.1 317.18 217.11 309.1 222.55 308.96"/>
          <g>
            <polygon class="cls-43" points="236.18 308.89 243.35 309 243.31 317.5 236.26 317.64 236.18 308.89"/>
            <polygon class="cls-42" points="236.26 317.64 230.78 317.64 230.82 309.03 236.26 308.89 236.26 317.64"/>
          </g>
          <rect class="cls-2" x="234.48" y="308.93" width="1.77" height="8.71"/>
          <g>
            <polygon class="cls-43" points="228.68 308.79 235.86 308.9 235.82 317.62 228.76 317.77 228.68 308.79"/>
            <polygon class="cls-42" points="228.76 317.77 223.28 317.77 223.33 308.93 228.76 308.79 228.76 317.77"/>
          </g>
          <polygon class="cls-2" points="228.76 308.86 223.31 317.16 223.33 309.01 228.76 308.86"/>
          <polygon class="cls-63" points="222.47 300.24 229.59 300.35 229.54 308.91 222.55 309.05 222.47 300.24"/>
          <polygon class="cls-42" points="222.55 309.05 217.12 309.05 217.16 300.38 222.55 300.24 222.55 309.05"/>
          <polygon class="cls-2" points="222.55 300.24 217.15 308.46 217.16 300.38 222.55 300.24"/>
          <g>
            <polygon class="cls-43" points="236.12 300.17 243.3 300.28 243.26 308.78 236.2 308.92 236.12 300.17"/>
            <polygon class="cls-42" points="236.2 308.92 230.72 308.92 230.76 300.31 236.2 300.17 236.2 308.92"/>
          </g>
          <rect class="cls-2" x="234.42" y="300.21" width="1.77" height="8.71"/>
          <g>
            <polygon class="cls-43" points="228.62 300.07 235.8 300.18 235.76 308.91 228.7 309.05 228.62 300.07"/>
            <polygon class="cls-42" points="228.7 309.05 223.23 309.05 223.27 300.21 228.7 300.07 228.7 309.05"/>
          </g>
          <polygon class="cls-2" points="228.7 300.07 223.26 308.44 223.27 300.21 228.7 300.07"/>
          <rect class="cls-80" x="228.68" y="308.79" width="14.63" height=".4"/>
          <rect class="cls-80" x="217.11" y="308.76" width="11.64" height=".43"/>
          <polygon class="cls-63" points="233.53 310.95 230.53 310.97 230.48 309.21 233.5 309.2 233.53 310.95"/>
          <polygon class="cls-63" points="241.41 310.95 238.41 310.94 238.39 309.18 241.4 309.2 241.41 310.95"/>
          <polygon class="cls-63" points="233.57 301.89 230.56 301.9 230.52 300.14 233.54 300.13 233.57 301.89"/>
          <polygon class="cls-63" points="241.38 302 238.38 301.98 238.35 300.22 241.37 300.24 241.38 302"/>
          <g>
            <polygon class="cls-37" points="255.52 296.01 218.03 296.01 218.03 293.53 255.62 293.53 255.52 296.01"/>
            <polygon class="cls-37" points="218.03 293.53 203.08 293.6 203.08 295.84 218.03 296.01 218.03 293.53"/>
          </g>
          <rect class="cls-66" x="218.03" y="293.53" width="37.56" height="1.1"/>
          <g>
            <polygon class="cls-37" points="255.52 319.97 218.03 319.97 218.03 317.49 255.62 317.49 255.52 319.97"/>
            <polygon class="cls-37" points="218.03 317.49 203.08 317.56 203.08 319.8 218.03 319.97 218.03 317.49"/>
          </g>
          <rect class="cls-66" x="218.03" y="317.49" width="37.56" height="1.11"/>
          <polygon class="cls-63" points="171.39 293.63 180.42 293.76 180.36 304.52 171.49 304.7 171.39 293.63"/>
          <polygon class="cls-42" points="171.49 304.7 164.61 304.7 164.65 293.8 171.49 293.63 171.49 304.7"/>
          <polygon class="cls-2" points="171.49 293.63 164.64 303.95 164.65 293.8 171.49 293.63"/>
          <polygon class="cls-73" points="188.63 293.54 197.65 293.67 197.6 304.36 188.73 304.53 188.63 293.54"/>
          <polygon class="cls-42" points="188.73 304.53 181.84 304.53 181.9 293.72 188.73 293.54 188.73 304.53"/>
          <rect class="cls-2" x="186.49" y="293.59" width="2.22" height="10.94"/>
          <polygon class="cls-73" points="179.2 293.41 188.23 293.54 188.18 304.51 179.31 304.7 179.2 293.41"/>
          <polygon class="cls-42" points="179.31 304.7 172.42 304.7 172.47 293.59 179.31 293.41 179.31 304.7"/>
          <polygon class="cls-2" points="179.31 293.5 172.45 303.94 172.47 293.68 179.31 293.5"/>
          <polygon class="cls-63" points="171.4 282.67 180.35 282.8 180.29 293.56 171.5 293.74 171.4 282.67"/>
          <polygon class="cls-42" points="171.5 293.74 164.67 293.74 164.72 282.85 171.5 282.67 171.5 293.74"/>
          <polygon class="cls-2" points="171.5 282.67 164.71 292.99 164.72 282.85 171.5 282.67"/>
          <polygon class="cls-73" points="188.55 282.58 197.58 282.71 197.53 293.4 188.66 293.57 188.55 282.58"/>
          <polygon class="cls-42" points="188.66 293.57 181.77 293.57 181.82 282.76 188.66 282.58 188.66 293.57"/>
          <rect class="cls-2" x="186.42" y="282.63" width="2.23" height="10.95"/>
          <polygon class="cls-73" points="179.13 282.45 188.16 282.59 188.11 293.56 179.23 293.74 179.13 282.45"/>
          <polygon class="cls-42" points="179.23 293.74 172.35 293.74 172.4 282.63 179.23 282.45 179.23 293.74"/>
          <polygon class="cls-2" points="179.23 282.45 172.39 292.98 172.4 282.63 179.23 282.45"/>
          <rect class="cls-80" x="179.2" y="293.41" width="18.39" height=".5"/>
          <rect class="cls-80" x="164.66" y="293.38" width="14.64" height=".54"/>
          <rect class="cls-21" x="214.42" y="264.38" width="2.02" height="74.82"/>
          <rect class="cls-21" x="201.18" y="264.59" width="2.02" height="74.61"/>
          <rect class="cls-45" x="215.75" y="264.38" width="1.1" height="74.82"/>
          <rect class="cls-45" x="202.83" y="264.59" width="1.1" height="74.82"/>
          <rect class="cls-21" x="201.37" y="287.58" width="13.69" height="2.16"/>
          <rect class="cls-21" x="201.37" y="275.62" width="13.69" height="2.16"/>
          <rect class="cls-8" x="201.37" y="312.5" width="13.69" height="2.16"/>
          <rect class="cls-37" x="201.37" y="326.45" width="13.69" height="2.16"/>
          <rect class="cls-21" x="201.37" y="299.54" width="13.42" height="2.16"/>
          <rect class="cls-41" x="202.86" y="314.68" width="11.58" height=".49"/>
          <rect class="cls-41" x="202.86" y="328.64" width="11.58" height=".5"/>
          <rect class="cls-41" x="202.86" y="301.72" width="11.58" height=".5"/>
          <rect class="cls-41" x="202.86" y="289.76" width="11.58" height=".5"/>
          <rect class="cls-41" x="202.86" y="277.79" width="11.58" height=".5"/>
          <polygon class="cls-73" points="201.5 308.45 212.97 308.62 212.9 322.57 201.63 322.8 201.5 308.45"/>
          <polygon class="cls-42" points="201.63 322.8 192.89 322.8 192.95 308.68 201.63 308.45 201.63 322.8"/>
          <rect class="cls-2" x="198.79" y="308.43" width="2.83" height="13.33"/>
          <rect class="cls-2" x="174.74" y="308.26" width="2.82" height="13.24"/>
          <g>
            <polygon class="cls-37" points="215.77 280.94 178.28 280.94 178.28 278.46 215.86 278.46 215.77 280.94"/>
            <polygon class="cls-37" points="178.28 278.46 163.32 278.53 163.32 280.77 178.28 280.94 178.28 278.46"/>
          </g>
          <g>
            <rect class="cls-37" x="178.28" y="303.82" width="37.49" height="2.48"/>
            <polygon class="cls-37" points="178.28 303.82 163.32 303.9 163.32 306.13 178.28 306.31 178.28 303.82"/>
          </g>
          <rect class="cls-66" x="178.28" y="278.46" width="37.56" height="1.1"/>
          <rect class="cls-66" x="178.24" y="303.86" width="37.56" height="1.1"/>
          <polygon class="cls-73" points="189.51 308.26 200.98 308.43 200.91 322.37 189.64 322.59 189.51 308.26"/>
          <polygon class="cls-42" points="189.64 322.59 180.9 322.59 180.96 308.49 189.64 308.26 189.64 322.59"/>
          <polygon class="cls-2" points="189.62 321.56 186.8 321.56 186.8 308.32 189.64 308.26 189.62 321.56"/>
          <polygon class="cls-73" points="177.45 308.19 189.01 308.29 188.85 322.3 177.58 322.52 177.45 308.19"/>
          <polygon class="cls-42" points="177.58 322.52 168.83 322.52 168.9 308.42 177.58 308.19 177.58 322.52"/>
          <g>
            <rect class="cls-37" x="178.28" y="321.47" width="37.49" height="2.48"/>
            <polygon class="cls-37" points="178.28 321.47 163.32 321.54 163.32 323.78 178.28 323.95 178.28 321.47"/>
          </g>
          <rect class="cls-66" x="178.24" y="321.5" width="37.56" height="1.1"/>
          <polygon class="cls-2" points="177.58 308.19 168.88 321.56 168.9 308.42 177.58 308.19"/>
          <rect class="cls-37" x="173.95" y="264.19" width="2.02" height="74.82"/>
          <rect class="cls-37" x="160.72" y="264.41" width="2.02" height="74.61"/>
          <rect class="cls-45" x="175.29" y="264.19" width="1.1" height="74.82"/>
          <rect class="cls-45" x="162.38" y="264.41" width="1.1" height="74.82"/>
          <rect class="cls-37" x="160.91" y="287.39" width="13.69" height="2.16"/>
          <rect class="cls-21" x="160.91" y="275.43" width="13.69" height="2.16"/>
          <rect class="cls-37" x="160.91" y="312.31" width="13.69" height="2.15"/>
          <rect class="cls-37" x="160.91" y="326.27" width="13.69" height="2.16"/>
          <rect class="cls-37" x="160.91" y="299.35" width="13.42" height="2.16"/>
          <rect class="cls-45" x="162.4" y="314.49" width="11.58" height=".5"/>
          <rect class="cls-45" x="162.4" y="328.45" width="11.58" height=".5"/>
          <rect class="cls-45" x="162.4" y="301.53" width="11.58" height=".5"/>
          <rect class="cls-45" x="162.4" y="289.57" width="11.58" height=".5"/>
          <rect class="cls-45" x="162.4" y="277.61" width="11.58" height=".49"/>
          <polygon class="cls-79" points="184.94 310.47 181.16 310.41 181.15 308.21 184.94 308.26 184.94 310.47"/>
          <polygon class="cls-79" points="197.45 310.58 193.68 310.53 193.66 308.32 197.45 308.38 197.45 310.58"/>
          <polygon class="cls-79" points="209.42 310.76 205.65 310.7 205.63 308.5 209.42 308.55 209.42 310.76"/>
          <polygon class="cls-79" points="185.3 296.13 181.53 296.14 181.47 293.94 185.26 293.92 185.3 296.13"/>
          <polygon class="cls-79" points="195.21 296.13 191.44 296.11 191.41 293.9 195.2 293.92 195.21 296.13"/>
          <polygon class="cls-79" points="185.35 284.73 181.58 284.75 181.52 282.54 185.31 282.53 185.35 284.73"/>
          <polygon class="cls-79" points="195.17 284.88 191.39 284.85 191.36 282.64 195.15 282.67 195.17 284.88"/>
          <polygon class="cls-35" points="153.77 341.09 68.91 341.09 68.91 254.18 112.71 227.49 153.77 254.18 153.77 341.09"/>
          <polygon class="cls-40" points="112.71 227.49 314.19 226.5 360.96 254.86 153.53 254.86 112.71 227.49"/>
          <polygon class="cls-40" points="68.91 257.43 112.71 230.73 153.77 257.6 153.77 254.86 112.71 227.49 68.91 254.18 68.91 257.43"/>
          <rect class="cls-35" x="226.31" y="254.86" width="134.66" height="86.23"/>
          <rect class="cls-74" x="221.53" y="254.86" width="4.79" height="86.23"/>
          <rect class="cls-50" x="153.77" y="254.86" width="207.28" height="2.74"/>
          <g>
            <rect class="cls-26" x="76.21" y="265.22" width="69.01" height="13.77"/>
            <rect class="cls-6" x="76.84" y="266.04" width="67.66" height="12.03"/>
            <rect class="cls-90" x="77.8" y="267.7" width="65.39" height="8.99"/>
            <polygon class="cls-19" points="77.8 276.69 143.19 267.7 77.8 267.7 77.8 276.69"/>
          </g>
          <g>
            <rect class="cls-26" x="76.21" y="285.75" width="69.01" height="13.78"/>
            <rect class="cls-6" x="76.84" y="286.58" width="67.66" height="12.03"/>
            <rect class="cls-90" x="77.8" y="288.22" width="65.39" height="8.99"/>
            <polygon class="cls-19" points="77.8 297.22 143.19 288.22 77.8 288.22 77.8 297.22"/>
          </g>
          <g>
            <rect class="cls-26" x="76.21" y="306.29" width="69.01" height="13.77"/>
            <rect class="cls-6" x="76.84" y="307.11" width="67.66" height="12.03"/>
            <rect class="cls-90" x="77.8" y="308.75" width="65.39" height="9"/>
            <polygon class="cls-19" points="77.8 317.75 143.19 308.75 77.8 308.75 77.8 317.75"/>
          </g>
          <rect class="cls-45" x="68.91" y="337.67" width="292.18" height="4.79"/>
          <rect class="cls-6" x="68.91" y="337.67" width="292.04" height="2.96"/>
          <rect class="cls-31" x="233.69" y="282.65" width="34.67" height="44.45"/>
          <rect class="cls-4" x="235.25" y="282.65" width="34.67" height="44.45"/>
          <rect class="cls-14" x="236.93" y="285.29" width="30.94" height="39.24"/>
          <rect class="cls-55" x="238.49" y="285.29" width="29.97" height="39.24"/>
          <rect class="cls-13" x="241.03" y="288.89" width="23.98" height="32.01"/>
          <polygon class="cls-62" points="265.01 288.89 241.03 320.9 241.03 288.89 265.01 288.89"/>
          <rect class="cls-31" x="275.54" y="282.35" width="34.67" height="44.46"/>
          <rect class="cls-4" x="277.1" y="282.35" width="34.67" height="44.46"/>
          <rect class="cls-14" x="278.78" y="284.99" width="30.94" height="39.24"/>
          <rect class="cls-55" x="280.34" y="284.99" width="29.97" height="39.24"/>
          <rect class="cls-13" x="282.88" y="288.59" width="23.98" height="32.02"/>
          <polygon class="cls-62" points="306.86 288.59 282.88 320.6 282.88 288.59 306.86 288.59"/>
          <rect class="cls-31" x="317.91" y="282.65" width="34.67" height="44.45"/>
          <rect class="cls-4" x="319.47" y="282.65" width="34.67" height="44.45"/>
          <rect class="cls-14" x="321.15" y="285.29" width="30.94" height="39.24"/>
          <rect class="cls-55" x="322.7" y="285.29" width="29.98" height="39.24"/>
          <rect class="cls-13" x="325.25" y="288.89" width="23.98" height="32.01"/>
          <polygon class="cls-62" points="349.23 288.89 325.25 320.9 325.25 288.89 349.23 288.89"/>
          <rect class="cls-62" x="226.36" y="257.6" width="134.73" height="9.35"/>
        </g>
        <g>
          <rect class="cls-88" x="146.28" y="305.83" width="2.99" height="27.52"/>
          <rect class="cls-54" x="146.28" y="305.83" width="1.69" height="27.52"/>
          <rect class="cls-60" x="140.74" y="334.68" width="22.41" height="7.83"/>
          <rect class="cls-60" x="142.4" y="327.57" width="9.96" height="9.01"/>
          <rect class="cls-54" x="142.46" y="327.57" width="4.39" height="6.87"/>
          <rect class="cls-54" x="134.93" y="334.44" width="11.92" height="7.12"/>
          <path class="cls-54" d="m147.56,307.76s8.18,16.72,7.91,33h2.14s-.53-25.86-8.05-33.11l-2,.12Z"/>
          <path class="cls-54" d="m164.73,306.43s8.18,16.72,7.92,33h2.13s-.53-25.87-8.05-33.11l-2,.12Z"/>
          <rect class="cls-88" x="133.47" y="305.83" width="2.99" height="27.52"/>
          <rect class="cls-54" x="133.47" y="305.83" width="1.69" height="27.52"/>
          <path class="cls-88" d="m133.43,307.88l16.14.12s5.6,6.23,8.02,33.15l2.42-.07s-1.77-26.32-9.17-35.62c-.09-.11-17.41-.07-17.41-.07v2.49Z"/>
          <path class="cls-88" d="m150.47,307.88l16.17.12s5.61,6.23,8.03,33.15l2.42-.07s-1.78-26.32-9.18-35.62c-.09-.11-18.03-.01-18.03-.01l.59,2.43Z"/>
          <rect class="cls-17" x="127.83" y="343.26" width="13.12" height="11.17"/>
          <polygon class="cls-86" points="164.56 354.62 177.47 354.7 177.47 345.71 160.27 345.64 164.56 354.62"/>
          <path class="cls-17" d="m127.79,333.28l.04,10.9s11.17-2.19,11.17,10.36l13.05.07v-6.44l-5.07-.15-10.06-14.59-9.13-.15Z"/>
          <path class="cls-54" d="m180.84,361.34h4.34s5.35-2.48,3.85-9.84c0,0-1.07-3.72-3.39-5.08h-4.79v14.93Z"/>
          <path class="cls-88" d="m185.96,353.88c0,4.13-2.29,7.47-5.12,7.47s-5.12-3.34-5.12-7.47,2.29-7.46,5.12-7.46,5.12,3.34,5.12,7.46Z"/>
          <polygon class="cls-44" points="136.93 333.43 139.77 333.43 148.9 346.64 154.59 346.79 152.05 348.17 146.99 348.02 136.93 333.43"/>
          <polygon class="cls-38" points="136.93 333.43 146.99 348.02 152.05 348.17 152.05 349.59 146.56 349.56 135.39 333.35 136.93 333.43"/>
          <polygon class="cls-17" points="144.78 340.7 171.6 340.73 172.01 347.13 148.9 346.64 144.78 340.7"/>
          <polygon class="cls-49" points="172.04 351.65 172.29 355.44 204.2 354.35 175.62 353.67 175.11 351.32 172.04 351.65"/>
          <polygon class="cls-56" points="173.33 351.44 173.76 354.27 204.2 354.35 172.29 355.44 172.04 351.65 173.33 351.44"/>
          <polygon class="cls-49" points="166.35 351.96 166.6 355.74 198.5 354.66 169.93 353.97 169.41 351.63 166.35 351.96"/>
          <polygon class="cls-56" points="167.64 351.75 168.06 354.57 198.5 354.66 166.6 355.74 166.35 351.96 167.64 351.75"/>
          <g>
            <g>
              <g>
                <path class="cls-54" d="m154.71,361.64l4.89-.16s5.41-2.39,3.75-9.76c0,0-1.16-3.71-3.65-5.06l-5.11.04.11,14.95Z"/>
                <path class="cls-88" d="m160.1,354.13c.03,4.13-2.39,7.5-5.4,7.51-3.01.03-5.48-3.3-5.51-7.43-.03-4.13,2.39-7.49,5.4-7.52,3.01-.02,5.48,3.31,5.51,7.43Z"/>
              </g>
              <g>
                <path class="cls-81" d="m158.62,354c-.02-2.87-1.86-5.18-4.12-5.16-2.26.02-4.06,2.36-4.04,5.22.03,2.87,1.87,5.18,4.12,5.16,2.26-.02,4.06-2.36,4.04-5.23Z"/>
                <path class="cls-87" d="m154.38,349.59c.79,0,1.51.34,2.1.92-.37-.16-.75-.25-1.16-.25-1.77.01-3.2,1.72-3.18,3.8.02,2.08,1.46,3.76,3.24,3.75.41,0,.79-.1,1.15-.26-.57.59-1.29.95-2.08.95-1.88.01-3.43-1.97-3.44-4.43-.02-2.46,1.5-4.47,3.37-4.49Z"/>
                <path class="cls-34" d="m152.14,354.07c-.01-2.09,1.41-3.79,3.18-3.8.41,0,.79.09,1.16.25.8.81,1.33,2.08,1.34,3.51.02,1.43-.5,2.71-1.29,3.53-.36.17-.75.26-1.15.26-1.78.01-3.22-1.67-3.24-3.75Z"/>
                <path class="cls-34" d="m155.94,354.01c-.02-1.59-.98-2.88-2.16-2.87-1.18,0-2.14,1.31-2.12,2.91.01,1.6.98,2.88,2.16,2.87,1.19,0,2.13-1.31,2.12-2.91Z"/>
                <path class="cls-34" d="m155.87,357.56c.79-.83,1.31-2.1,1.29-3.53,0-1.43-.54-2.69-1.34-3.51-.5-.5-1.11-.83-1.77-.91.11-.02.22-.02.33-.02.79,0,1.51.34,2.1.92.8.81,1.33,2.08,1.34,3.51.02,1.43-.5,2.71-1.29,3.53-.57.59-1.29.95-2.08.95-.11,0-.23,0-.34-.02.66-.09,1.27-.42,1.76-.93Z"/>
                <path class="cls-24" d="m155.05,354.1c0-1.06-.65-1.91-1.43-1.9-.78,0-1.41.87-1.4,1.92,0,1.05.65,1.9,1.43,1.9.78,0,1.41-.86,1.4-1.92Z"/>
              </g>
            </g>
            <g>
              <path class="cls-69" d="m160.43,354.76l4.27-.03s.54-6.98-5.19-8.93l-4.59-.04s5.72,1.24,5.51,9Z"/>
              <path class="cls-33" d="m154.92,345.76c-3.24.02-7.1,3.52-6.42,9.14l1.12-.05c-.33-5.22,2.67-7.86,5.15-7.88,2.47-.02,5.77,1.46,5.65,7.79l1.31-.02c.35-6-3.58-9.01-6.82-8.98Z"/>
            </g>
          </g>
          <g>
            <g>
              <g>
                <path class="cls-54" d="m133.14,361.64l4.89-.16s5.41-2.39,3.75-9.76c0,0-1.16-3.71-3.65-5.06l-5.11.04.11,14.95Z"/>
                <path class="cls-88" d="m138.53,354.13c.03,4.13-2.38,7.5-5.4,7.51-3.01.03-5.48-3.3-5.51-7.43-.03-4.13,2.39-7.49,5.4-7.52,3.01-.02,5.47,3.31,5.51,7.43Z"/>
              </g>
              <g>
                <path class="cls-81" d="m137.05,354c-.02-2.87-1.86-5.18-4.12-5.16-2.25.02-4.06,2.36-4.04,5.22.02,2.87,1.87,5.18,4.12,5.16,2.25-.02,4.06-2.36,4.04-5.23Z"/>
                <path class="cls-87" d="m132.81,349.59c.79,0,1.51.34,2.09.92-.36-.16-.75-.25-1.16-.25-1.77.01-3.19,1.72-3.18,3.8.01,2.08,1.47,3.76,3.24,3.75.41,0,.79-.1,1.15-.26-.57.59-1.3.95-2.08.95-1.88.01-3.42-1.97-3.44-4.43-.02-2.46,1.49-4.47,3.37-4.49Z"/>
                <path class="cls-34" d="m130.57,354.07c-.01-2.09,1.41-3.79,3.18-3.8.41,0,.8.09,1.16.25.81.81,1.34,2.08,1.35,3.51,0,1.43-.5,2.71-1.3,3.53-.36.17-.75.26-1.15.26-1.77.01-3.22-1.67-3.24-3.75Z"/>
                <path class="cls-34" d="m134.37,354.01c-.01-1.59-.98-2.88-2.16-2.87-1.19,0-2.14,1.31-2.13,2.91.01,1.6.98,2.88,2.17,2.87,1.18,0,2.13-1.31,2.12-2.91Z"/>
                <path class="cls-34" d="m134.3,357.56c.79-.83,1.3-2.1,1.29-3.53,0-1.43-.54-2.69-1.34-3.51-.5-.5-1.11-.83-1.77-.91.11-.02.22-.02.34-.02.79,0,1.51.34,2.09.92.81.81,1.34,2.08,1.35,3.51,0,1.43-.5,2.71-1.3,3.53-.57.59-1.3.95-2.08.95-.11,0-.22,0-.33-.02.66-.09,1.26-.42,1.76-.93Z"/>
                <path class="cls-24" d="m133.48,354.1c0-1.06-.65-1.91-1.43-1.9-.78,0-1.41.87-1.4,1.92,0,1.05.65,1.9,1.43,1.9.78,0,1.41-.86,1.4-1.92Z"/>
              </g>
            </g>
            <g>
              <path class="cls-69" d="m138.86,354.76l4.27-.03s.54-6.98-5.19-8.93l-4.59-.04s5.72,1.24,5.51,9Z"/>
              <path class="cls-33" d="m133.35,345.76c-3.24.02-7.1,3.52-6.41,9.14l1.12-.05c-.33-5.22,2.67-7.86,5.15-7.88,2.48-.02,5.76,1.46,5.65,7.79l1.31-.02c.34-6-3.58-9.01-6.82-8.98Z"/>
            </g>
          </g>
          <g>
            <g>
              <rect class="cls-43" x="184.2" y="320.62" width="11.65" height="10.84"/>
              <rect class="cls-42" x="175.61" y="320.62" width="8.84" height="10.84"/>
              <rect class="cls-63" x="187.26" y="320.62" width="5.2" height="2.75"/>
              <polygon class="cls-2" points="175.61 331.46 184.45 320.62 184.45 331.46 175.61 331.46"/>
            </g>
            <g>
              <rect class="cls-43" x="189.49" y="330.53" width="11.54" height="11.29"/>
              <rect class="cls-42" x="180.97" y="330.53" width="8.76" height="11.29"/>
              <rect class="cls-63" x="192.51" y="330.53" width="5.16" height="2.86"/>
              <polygon class="cls-2" points="180.97 341.82 189.73 330.53 189.73 341.82 180.97 341.82"/>
            </g>
            <g>
              <rect class="cls-43" x="177.7" y="330.53" width="11.53" height="11.29"/>
              <rect class="cls-42" x="169.2" y="330.53" width="8.75" height="11.29"/>
              <rect class="cls-63" x="180.73" y="330.53" width="5.16" height="2.86"/>
              <polygon class="cls-2" points="169.2 341.82 177.95 330.53 177.95 341.82 169.2 341.82"/>
            </g>
            <g>
              <rect class="cls-43" x="190.66" y="341.28" width="14.04" height="13.07"/>
              <rect class="cls-42" x="180.31" y="341.28" width="10.65" height="13.07"/>
              <rect class="cls-63" x="194.34" y="341.28" width="6.27" height="3.31"/>
              <polygon class="cls-2" points="180.31 354.35 190.96 341.28 190.96 354.35 180.31 354.35"/>
            </g>
            <g>
              <rect class="cls-43" x="176.32" y="341.28" width="14.04" height="13.07"/>
              <rect class="cls-42" x="165.96" y="341.28" width="10.66" height="13.07"/>
              <rect class="cls-63" x="180.01" y="341.28" width="6.27" height="3.31"/>
              <polygon class="cls-2" points="165.96 354.35 176.62 341.28 176.62 354.35 165.96 354.35"/>
            </g>
          </g>
        </g>
        <g>
          <g>
            <path class="cls-54" d="m363.02,356.38l5.51-.16s6.11-2.82,4.31-11.65c0,0-1.28-4.46-4.07-6.1h-5.75v17.91Z"/>
            <path class="cls-88" d="m369.16,347.42c0,4.95-2.75,8.96-6.14,8.96s-6.14-4.01-6.14-8.96,2.75-8.96,6.14-8.96,6.14,4.01,6.14,8.96Z"/>
          </g>
          <g>
            <path class="cls-54" d="m290.28,356.75l4.79-.16s5.59-2.58,3.94-10.67c0,0-1.17-4.08-3.72-5.59h-5.27l.26,16.42Z"/>
            <path class="cls-88" d="m295.65,348.53c0,4.53-2.52,8.2-5.63,8.2s-5.62-3.68-5.62-8.2,2.52-8.2,5.62-8.2,5.63,3.67,5.63,8.2Z"/>
          </g>
          <g>
            <path class="cls-54" d="m416.55,356.43l4.65-.15s5.27-2.43,3.72-10.06c0,0-1.1-3.85-3.51-5.27h-4.97l.11,15.48Z"/>
            <path class="cls-88" d="m421.74,348.68c0,4.27-2.37,7.73-5.3,7.73s-5.3-3.46-5.3-7.73,2.38-7.73,5.3-7.73,5.3,3.46,5.3,7.73Z"/>
          </g>
          <rect class="cls-67" x="370.62" y="342.03" width="39.77" height="6.37"/>
          <rect class="cls-57" x="370.54" y="295.1" width="43.39" height="46.95"/>
          <rect class="cls-22" x="394.57" y="301.73" width="36.44" height="2.2"/>
          <rect class="cls-82" x="394.57" y="303.93" width="36.44" height="3.12"/>
          <rect class="cls-22" x="394.48" y="307.05" width="36.49" height="4.95"/>
          <rect class="cls-71" x="394.6" y="315.68" width="36.37" height="15.23"/>
          <rect class="cls-22" x="394.18" y="330.91" width="36.85" height="10.83"/>
          <path class="cls-59" d="m415.59,302.13l.12-7.13s15.13-.45,15.24,7.13h-15.36Z"/>
          <polygon class="cls-59" points="379.15 295.3 417.97 295.06 416.78 302.1 384.32 301.97 379.15 295.3"/>
          <rect class="cls-28" x="379.24" y="301.73" width="15.36" height="40.33"/>
          <path class="cls-28" d="m379.24,302.46l-.09-7.16s15.34-.41,15.45,7.16h-15.36Z"/>
          <rect class="cls-59" x="379.24" y="303.93" width="15.39" height="3.06"/>
          <polygon class="cls-39" points="394.6 330.91 403.19 341.84 422.38 342.02 431.03 330.91 394.6 330.91"/>
          <polygon class="cls-78" points="394.66 315.82 410.72 330.82 419.35 330.91 402.74 315.77 394.66 315.82"/>
          <polygon class="cls-78" points="407.14 315.82 423.2 330.82 427.06 330.82 410.82 315.86 407.14 315.82"/>
          <rect class="cls-70" x="379.27" y="313.42" width="51.72" height="2.39"/>
          <rect class="cls-39" x="379.24" y="312.01" width="51.7" height="1.41"/>
          <rect class="cls-62" x="379.24" y="312.01" width="15.42" height="3.81"/>
          <rect class="cls-28" x="394.57" y="330.82" width="36.44" height="2.66"/>
          <rect class="cls-22" x="394.6" y="341.74" width="36.96" height="2.82"/>
          <rect class="cls-22" x="394.2" y="347.62" width="37.36" height="2.81"/>
          <rect class="cls-39" x="394.17" y="344.56" width="37.33" height="3.06"/>
          <rect class="cls-77" x="401.14" y="335.45" width="23.44" height=".64"/>
          <rect class="cls-77" x="401.14" y="336.62" width="23.44" height=".64"/>
          <rect class="cls-77" x="401.14" y="337.8" width="23.44" height=".64"/>
          <rect class="cls-48" x="394.18" y="341.74" width="8.86" height="2.8"/>
          <rect class="cls-48" x="422.81" y="341.74" width="8.87" height="2.8"/>
          <rect class="cls-39" x="382.36" y="315.71" width="8.81" height="26.6"/>
          <rect class="cls-70" x="382.36" y="315.68" width=".85" height="26.37"/>
          <rect class="cls-70" x="390.43" y="315.68" width=".86" height="26.37"/>
          <rect class="cls-71" x="384.2" y="317.33" width="4.96" height="13.31"/>
          <polygon class="cls-78" points="384.24 322.29 389.16 330.64 389.17 327.46 384.21 319.1 384.24 322.29"/>
          <polygon class="cls-78" points="384.2 318.07 389.16 325.59 389.16 322.97 385.55 317.33 384.2 317.33 384.2 318.07"/>
          <rect class="cls-65" x="249.83" y="295.1" width="120.71" height="43.91"/>
          <rect class="cls-47" x="249.83" y="295.1" width="120.53" height="17.15"/>
          <rect class="cls-28" x="394.2" y="347.62" width="37.31" height="1.12"/>
          <rect class="cls-47" x="249.8" y="338.93" width="120.84" height="1.45"/>
          <rect class="cls-89" x="249.8" y="338.93" width="120.83" height="3.17"/>
          <g>
            <path class="cls-58" d="m376.53,350.6l2.94.21s2.03-7.76,4.9-8.89l-2.31-1.56s-7.15,2.43-5.54,10.24Z"/>
            <g>
              <g>
                <path class="cls-54" d="m382.98,356.53l4.78-.15s5.5-2.34,3.88-9.67c0,0-1.15-3.7-3.66-5.06h-5.18l.19,14.88Z"/>
                <path class="cls-88" d="m388.33,349.08c0,4.1-2.47,7.43-5.53,7.43s-5.54-3.33-5.54-7.43,2.48-7.44,5.54-7.44,5.53,3.33,5.53,7.44Z"/>
              </g>
              <path class="cls-81" d="m386.82,348.94c0-2.85-1.85-5.16-4.13-5.16s-4.14,2.31-4.14,5.16,1.86,5.17,4.14,5.17,4.13-2.31,4.13-5.17Z"/>
              <path class="cls-34" d="m384.67,345.46c-.59-.59-1.32-.94-2.12-.94-1.9,0-3.46,1.99-3.46,4.44s1.56,4.43,3.46,4.43c.8,0,1.53-.35,2.12-.93.81-.82,1.34-2.08,1.34-3.5s-.53-2.69-1.34-3.5Z"/>
              <path class="cls-34" d="m384.11,348.93c0-1.59-.98-2.88-2.17-2.88s-2.17,1.29-2.17,2.88.98,2.87,2.17,2.87,2.17-1.29,2.17-2.87Z"/>
              <path class="cls-34" d="m384.01,352.46c.81-.82,1.34-2.08,1.34-3.5s-.53-2.69-1.34-3.5c-.51-.51-1.12-.84-1.79-.92.11-.01.22-.02.34-.02.8,0,1.53.35,2.12.94.81.81,1.34,2.07,1.34,3.5s-.53,2.68-1.34,3.5c-.59.58-1.32.93-2.12.93-.12,0-.23,0-.34-.02.66-.08,1.28-.41,1.79-.91Z"/>
              <path class="cls-24" d="m383.21,349.01c0-1.05-.64-1.9-1.44-1.9s-1.43.85-1.43,1.9.64,1.9,1.43,1.9,1.44-.85,1.44-1.9Z"/>
            </g>
            <path class="cls-20" d="m388.23,351.03l4.69.11s.7-10.67-5.81-11.26l-5.4-.16s7.36,3.13,6.52,11.32Z"/>
            <path class="cls-10" d="m376.53,350.6s.14-10.19,6.31-9.32c0,0,5.39.54,4.48,9.8l.91-.05s1.04-11.1-6.1-11.26c0,0-6.73-.32-6.45,10.83h.84Z"/>
          </g>
          <rect class="cls-89" x="249.8" y="339.54" width="97.38" height="4.95"/>
          <rect class="cls-88" x="249.8" y="341.55" width="120.76" height="2.89"/>
          <g>
            <path class="cls-58" d="m328.07,350.5l3.11.23s2.15-8.21,5.19-9.4l-2.45-1.65s-7.55,2.56-5.85,10.82Z"/>
            <g>
              <g>
                <path class="cls-54" d="m334.9,356.77l5.05-.16s5.82-2.47,4.1-10.23c0,0-1.22-3.91-3.87-5.35h-5.48l.2,15.73Z"/>
                <path class="cls-88" d="m340.55,348.9c0,4.33-2.62,7.86-5.85,7.86s-5.85-3.52-5.85-7.86,2.62-7.86,5.85-7.86,5.85,3.52,5.85,7.86Z"/>
              </g>
              <path class="cls-81" d="m338.96,348.74c0-3.02-1.96-5.46-4.38-5.46s-4.38,2.44-4.38,5.46,1.96,5.46,4.38,5.46,4.38-2.45,4.38-5.46Z"/>
              <path class="cls-34" d="m336.68,345.06c-.61-.62-1.39-.99-2.24-.99-2.02,0-3.66,2.1-3.66,4.69s1.64,4.69,3.66,4.69c.84,0,1.62-.37,2.24-.99.86-.86,1.42-2.2,1.42-3.7s-.56-2.84-1.42-3.7Z"/>
              <path class="cls-34" d="m336.08,348.74c0-1.68-1.03-3.04-2.3-3.04s-2.3,1.36-2.3,3.04,1.03,3.04,2.3,3.04,2.3-1.36,2.3-3.04Z"/>
              <path class="cls-34" d="m335.98,352.47c.86-.86,1.42-2.2,1.42-3.7s-.56-2.84-1.42-3.7c-.53-.53-1.18-.88-1.89-.96.12-.02.24-.02.36-.02.84,0,1.62.37,2.24.99.86.86,1.42,2.2,1.42,3.7s-.56,2.84-1.42,3.7c-.61.62-1.39.99-2.24.99-.12,0-.24,0-.36-.02.71-.09,1.36-.43,1.89-.97Z"/>
              <path class="cls-24" d="m335.13,348.82c0-1.11-.68-2.01-1.51-2.01s-1.52.9-1.52,2.01.68,2.01,1.52,2.01,1.51-.9,1.51-2.01Z"/>
            </g>
            <path class="cls-20" d="m340.44,350.96l4.96.11s.74-11.28-6.15-11.91l-5.7-.17s7.78,3.31,6.89,11.97Z"/>
            <path class="cls-10" d="m328.07,350.5s.15-10.77,6.67-9.86c0,0,5.7.57,4.74,10.37l.96-.06s1.11-11.74-6.44-11.91c0,0-7.11-.34-6.82,11.45h.89Z"/>
          </g>
          <g>
            <path class="cls-58" d="m344.47,350.5l3.12.23s2.14-8.21,5.18-9.4l-2.45-1.65s-7.55,2.56-5.85,10.82Z"/>
            <g>
              <g>
                <path class="cls-54" d="m351.3,356.77l5.05-.16s5.82-2.47,4.11-10.23c0,0-1.22-3.91-3.88-5.35h-5.47l.19,15.73Z"/>
                <path class="cls-88" d="m356.95,348.9c0,4.33-2.61,7.86-5.84,7.86s-5.85-3.52-5.85-7.86,2.62-7.86,5.85-7.86,5.84,3.52,5.84,7.86Z"/>
              </g>
              <path class="cls-81" d="m355.36,348.74c0-3.02-1.96-5.46-4.37-5.46s-4.38,2.44-4.38,5.46,1.96,5.46,4.38,5.46,4.37-2.45,4.37-5.46Z"/>
              <path class="cls-34" d="m353.09,345.06c-.62-.62-1.4-.99-2.24-.99-2.01,0-3.65,2.1-3.65,4.69s1.64,4.69,3.65,4.69c.84,0,1.62-.37,2.24-.99.86-.86,1.42-2.2,1.42-3.7s-.56-2.84-1.42-3.7Z"/>
              <path class="cls-34" d="m352.48,348.74c0-1.68-1.03-3.04-2.3-3.04s-2.3,1.36-2.3,3.04,1.03,3.04,2.3,3.04,2.3-1.36,2.3-3.04Z"/>
              <path class="cls-34" d="m352.38,352.47c.85-.86,1.41-2.2,1.41-3.7s-.56-2.84-1.41-3.7c-.53-.53-1.18-.88-1.89-.96.12-.02.24-.02.36-.02.84,0,1.62.37,2.24.99.86.86,1.42,2.2,1.42,3.7s-.56,2.84-1.42,3.7c-.62.62-1.4.99-2.24.99-.12,0-.24,0-.36-.02.71-.09,1.36-.43,1.89-.97Z"/>
              <path class="cls-24" d="m351.53,348.82c0-1.11-.68-2.01-1.51-2.01s-1.53.9-1.53,2.01.68,2.01,1.53,2.01,1.51-.9,1.51-2.01Z"/>
            </g>
            <path class="cls-20" d="m356.84,350.96l4.96.11s.74-11.28-6.15-11.91l-5.7-.17s7.78,3.31,6.89,11.97Z"/>
            <path class="cls-10" d="m344.47,350.5s.15-10.77,6.67-9.86c0,0,5.7.57,4.74,10.37l.96-.06s1.11-11.74-6.44-11.91c0,0-7.11-.34-6.82,11.45h.89Z"/>
          </g>
          <g>
            <path class="cls-58" d="m255.29,350.04l3.11.23s2.15-8.2,5.18-9.4l-2.44-1.65s-7.55,2.56-5.85,10.82Z"/>
            <g>
              <g>
                <path class="cls-54" d="m262.12,356.31l5.05-.15s5.82-2.47,4.11-10.23c0,0-1.22-3.91-3.88-5.35h-5.48l.2,15.73Z"/>
                <path class="cls-88" d="m267.77,348.44c0,4.34-2.62,7.86-5.85,7.86s-5.85-3.52-5.85-7.86,2.62-7.86,5.85-7.86,5.85,3.52,5.85,7.86Z"/>
              </g>
              <path class="cls-81" d="m266.18,348.29c0-3.02-1.96-5.46-4.38-5.46s-4.38,2.44-4.38,5.46,1.96,5.46,4.38,5.46,4.38-2.45,4.38-5.46Z"/>
              <path class="cls-34" d="m263.91,344.61c-.62-.62-1.39-.99-2.24-.99-2.01,0-3.66,2.1-3.66,4.7s1.64,4.69,3.66,4.69c.85,0,1.62-.37,2.24-.99.86-.86,1.42-2.2,1.42-3.7s-.56-2.84-1.42-3.71Z"/>
              <path class="cls-34" d="m263.31,348.28c0-1.68-1.03-3.04-2.3-3.04s-2.3,1.36-2.3,3.04,1.03,3.04,2.3,3.04,2.3-1.36,2.3-3.04Z"/>
              <path class="cls-34" d="m263.2,352.01c.85-.86,1.41-2.2,1.41-3.7s-.56-2.84-1.41-3.71c-.54-.53-1.19-.88-1.89-.97.12-.02.24-.02.36-.02.85,0,1.62.37,2.24.99.86.86,1.42,2.2,1.42,3.71s-.56,2.84-1.42,3.7c-.62.62-1.39.99-2.24.99-.12,0-.24,0-.36-.02.7-.09,1.35-.44,1.89-.97Z"/>
              <path class="cls-24" d="m262.36,348.36c0-1.11-.68-2.01-1.52-2.01s-1.52.9-1.52,2.01.68,2.01,1.52,2.01,1.52-.9,1.52-2.01Z"/>
            </g>
            <path class="cls-20" d="m267.67,350.5l4.96.11s.74-11.28-6.15-11.9l-5.7-.17s7.78,3.3,6.89,11.96Z"/>
            <path class="cls-10" d="m255.29,350.04s.15-10.77,6.67-9.86c0,0,5.7.57,4.74,10.37l.96-.05s1.11-11.74-6.45-11.91c0,0-7.11-.34-6.81,11.45h.89Z"/>
          </g>
          <g>
            <path class="cls-58" d="m271.69,350.04l3.11.23s2.15-8.2,5.19-9.4l-2.45-1.65s-7.56,2.56-5.85,10.82Z"/>
            <g>
              <g>
                <path class="cls-54" d="m278.52,356.31l5.05-.15s5.82-2.47,4.11-10.23c0,0-1.22-3.91-3.88-5.35h-5.48l.2,15.73Z"/>
                <path class="cls-88" d="m284.17,348.44c0,4.34-2.62,7.86-5.85,7.86s-5.85-3.52-5.85-7.86,2.62-7.86,5.85-7.86,5.85,3.52,5.85,7.86Z"/>
              </g>
              <path class="cls-81" d="m282.58,348.29c0-3.02-1.95-5.46-4.37-5.46s-4.38,2.44-4.38,5.46,1.96,5.46,4.38,5.46,4.37-2.45,4.37-5.46Z"/>
              <path class="cls-34" d="m280.31,344.61c-.62-.62-1.4-.99-2.24-.99-2.01,0-3.65,2.1-3.65,4.7s1.64,4.69,3.65,4.69c.84,0,1.62-.37,2.24-.99.86-.86,1.41-2.2,1.41-3.7s-.55-2.84-1.41-3.71Z"/>
              <path class="cls-34" d="m279.71,348.28c0-1.68-1.03-3.04-2.3-3.04s-2.3,1.36-2.3,3.04,1.03,3.04,2.3,3.04,2.3-1.36,2.3-3.04Z"/>
              <path class="cls-34" d="m279.6,352.01c.86-.86,1.42-2.2,1.42-3.7s-.56-2.84-1.42-3.71c-.53-.53-1.18-.88-1.89-.97.12-.02.24-.02.36-.02.84,0,1.62.37,2.24.99.86.86,1.41,2.2,1.41,3.71s-.55,2.84-1.41,3.7c-.62.62-1.4.99-2.24.99-.12,0-.24,0-.36-.02.71-.09,1.36-.44,1.89-.97Z"/>
              <path class="cls-24" d="m278.76,348.36c0-1.11-.68-2.01-1.52-2.01s-1.52.9-1.52,2.01.68,2.01,1.52,2.01,1.52-.9,1.52-2.01Z"/>
            </g>
            <path class="cls-20" d="m284.06,350.5l4.96.11s.74-11.28-6.15-11.9l-5.7-.17s7.78,3.3,6.89,11.96Z"/>
            <path class="cls-10" d="m271.69,350.04s.15-10.77,6.67-9.86c0,0,5.7.57,4.74,10.37l.96-.05s1.11-11.74-6.44-11.91c0,0-7.12-.34-6.82,11.45h.89Z"/>
          </g>
          <rect class="cls-88" x="249.8" y="336.88" width="120.83" height="2.71"/>
        </g>
      </g>
    </g>
  </g>
</svg>