<svg xmlns="http://www.w3.org/2000/svg" width="230" height="45" viewBox="0 0 230 45">
    <g data-name="Group 338">
        <rect data-name="Rectangle 1161" width="230" height="45" rx="5" style="fill:#f2f2f2"/>
        <path data-name="Rectangle 1162" d="M5 0h17v45H5a5 5 0 0 1-5-5V5a5 5 0 0 1 5-5z" style="fill:#002f9c"/>
        <g data-name="Rectangle 1160" style="stroke:#a0a0a0;fill:none">
            <rect width="230" height="45" rx="5" style="stroke:none"/>
            <rect x=".5" y=".5" width="229" height="44" rx="4.5" style="fill:none"/>
        </g>
        <path data-name="Line 145" transform="translate(177 .5)" style="stroke:#a0a0a0;fill:none" d="M0 0v44"/>
        <path d="M-4.2 38.552H-5V34h.8zm1.4-.8a.508.508 0 0 1 .333.134.348.348 0 0 1 .133.268.348.348 0 0 1-.133.268.508.508 0 0 1-.333.134.508.508 0 0 1-.333-.134.508.508 0 0 1-.133-.268.508.508 0 0 1 .133-.268.508.508 0 0 1 .333-.137zm3.133-1h-.866v1.741h-.8V34H.333a2.364 2.364 0 0 1 1.267.335 1.311 1.311 0 0 1 .467 1 1.354 1.354 0 0 1-.2.736 1.453 1.453 0 0 1-.6.469l1.067 1.874v.067H1.267zm-.867-.6h.867a1.123 1.123 0 0 0 .667-.2.762.762 0 0 0 .2-.536.66.66 0 0 0-.2-.546 1.544 1.544 0 0 0-.667-.27h-.866zm3.667 1.607a.463.463 0 0 1 .467.4.348.348 0 0 1-.133.268.482.482 0 0 1-.667 0 .4.4 0 0 1 .333-.669zm-7.333 10.3H-5v-4.553h.8zm2.733-1.741H-2.4v1.741h-.8v-4.553h1.667a2.364 2.364 0 0 1 1.267.335 1.311 1.311 0 0 1 .467 1 1.354 1.354 0 0 1-.2.736 1.453 1.453 0 0 1-.6.469l.933 1.941v.067h-.867zm-.933-.6h.867a1.123 1.123 0 0 0 .667-.2.762.762 0 0 0 .2-.536.66.66 0 0 0-.2-.536.882.882 0 0 0-.667-.2H-2.4zm5.933 1.272h-1.8l-.4 1.071H.467l1.8-4.552H3l1.733 4.552h-.8zm-1.6-.6h1.334L2.6 44.51zM9 48.059h-.8l-2.067-3.214v3.213h-.8v-4.552h.8L8.2 46.72v-3.214H9z" transform="translate(10.006 -8.277)" style="fill:#fff"/>
        <path transform="translate(5.012 6.582)" style="fill:#fff" d="M0 0h13.992v8.395H0z"/>
        <path data-name="Rectangle 1159" transform="translate(5.012 12.179)" style="fill:#da0000" d="M0 0h13.992v2.798H0z"/>
        <path data-name="Path 238" d="m2.265 1.172.114.114v.572l-.057.742a.69.69 0 0 0 .286-.286 1.059 1.059 0 0 0 0-1.088.875.875 0 0 1 .172 1.148.987.987 0 0 1-.343.343.849.849 0 0 0 .4.057.632.632 0 0 1-.458 0v.057l-.114.114-.057-.114v-.057a1.232 1.232 0 0 1-.458 0 .974.974 0 0 0 .4-.057.805.805 0 0 1-.4-.343.959.959 0 0 1 .172-1.145.957.957 0 0 0 0 1.03.69.69 0 0 0 .286.286l-.058-.686v-.573c.057 0 .057-.057.114-.114zm.4.057a.807.807 0 0 1 .572.63.785.785 0 0 1-.343.744 1.112 1.112 0 0 0 .172-.744 1.088 1.088 0 0 0-.4-.63zm-.8 0a1.088 1.088 0 0 0-.4.63 1.112 1.112 0 0 0 .172.744.785.785 0 0 1-.343-.744.807.807 0 0 1 .57-.63zm.229-.057c-.057-.057-.114-.114-.057-.172a.123.123 0 0 0 .114.114c.057 0 .114 0 .114-.057.057.057.057.057.114.057A.123.123 0 0 0 2.494 1a.21.21 0 0 1-.057.172h-.172c-.057 0-.115.057-.172 0z" transform="translate(9.934 9.016)" style="fill:#da0000"/>
        <path data-name="Path 239" d="M-9-5H5v2.862H-9z" transform="translate(14.006 11.581)" style="fill:#239f40"/>
        <path data-name="Path 240" d="M-7.542 5.458v.057H-7.6v-.057zm1.283 0v.057h-.058v-.057zm1.283 0v.057h-.058v-.057zm1.283 0v.057h-.058v-.057zm1.283 0v.057h-.06v-.057zm1.283 0v.057h-.058v-.057zm1.283 0v.057H.1v-.057zm1.283 0v.057h-.061v-.057zm-10.262 0v.057h-.058v-.057zm11.544 0v.057h-.06v-.057zm1.224 0v.057h-.06v-.057zm-1.75-.286V5.4h.058v-.228h.058V5.4h.058v-.228h.058v.286h-.291v-.115h-.175V5.4h.117v.057h-.233v-.171h.233v-.114zm1.283 0V5.4h.058v-.228h.058V5.4h.058v-.228h.058v.286h-.291v-.115h-.175V5.4h.117v.057h-.175v-.171h.233v-.114zm-10.9.114V5.4h.058v-.114h.175v.172h-.292V5.4h-.175v.114h-.058v-.228zm2.565 0V5.4h.057v-.114h.175v.172h-.292V5.4h-.175v.114h-.058v-.228zm2.565 0V5.4h.058v-.114h.175v.172h-.292V5.4h-.175v.114h-.058v-.228zm7.052-.114V5.4h.058v-.228h.058V5.4h.058v-.228h.058v.286H4.7v-.115h-.173V5.4h.117v.057H4.41v-.171h.233v-.114zm-4.49.114V5.4h.059v-.114H.5v.172H.212V5.4H.037v.114h-.116v-.228zm-3.848 0V5.4h.058v-.114h.175v.172h-.292V5.4h-.175v.114h-.058v-.228zm-2.565 0V5.4h.058v-.114h.175v.172h-.29V5.4h-.175v.114h-.058v-.228zm8.979 0V5.4h.058v-.114h.175v.172h-.291V5.4H2.6v.114h-.056v-.228zm-7.055-.114V5.4h.058v-.228h.061V5.4h.058v-.228h.058v.286h-.292v-.115h-.175V5.4h.117v.057h-.175v-.171h.233v-.114zm3.848 0V5.4h.058v-.228h.058V5.4H-.2v-.228h.058v.286h-.287v-.115H-.6V5.4h.117v.057h-.238v-.171h.233v-.114zm-8.338.114V5.4h.058v-.114h.233v.172h-.292V5.4h-.175v.114H-9v-.228zm9.62-.114V5.4H.97v-.228h.058V5.4h.058v-.228h.058v.286H.853v-.115H.679V5.4H.8v.057H.562v-.171H.8v-.114zm.641.114V5.4h.058v-.114h.175v.172h-.29V5.4h-.233v.114H1.2v-.228zm2.565 0V5.4h.058v-.114h.175v.172h-.29V5.4h-.233v.114h-.058v-.228zm-12.184-.114V5.4h.058v-.228h.058V5.4h.058v-.228h.058v.286h-.292v-.115H-8.3V5.4h.117v.057h-.175v-.171h.233v-.114zm6.414 0V5.4h.053v-.228h.058V5.4h.058v-.228h.058v.286h-.292v-.115h-.175V5.4h.117v.057h-.175v-.171h.233v-.114zm-1.283 0V5.4h.058v-.228h.058V5.4h.058v-.228h.062v.286h-.292v-.115l-.178.057v.057h.117v.057h-.175v-.228h.233v-.114zm-2.565 0V5.4h.058v-.228h.058V5.4h.058v-.228h.058v.286h-.291v-.115h-.175V5.4h.117v.057h-.175v-.171h.233v-.114zm-1.283 0V5.4h.058v-.228h.058V5.4h.058v-.228h.058v.286h-.292v-.115h-.175V5.4h.119v.057h-.175v-.171h.233v-.114zm5.772.114V5.4h.058v-.114h.175v.172h-.292V5.4h-.175v.114H-1.3v-.228zm5.6-.114v.057h-.819v-.057zm-2.507 0v.057H1.2v-.057zm1.283 0v.057h-.82v-.057zm-7.7 0v.057h-.816v-.057zm5.131 0v.057h-.874v-.057zm-8.979 0v.057H-9v-.057zm1.283 0v.057h-.816v-.057zm1.283 0v.057h-.816v-.057zm3.848 0v.057h-.816v-.057zm1.283 0v.057H-1.3v-.057zm-2.565 0v.057h-.816v-.057zM-5.21 5v.114h-.583V5zm.641 0v.114h-.583V5zm4.431 0v.114h-.583V5zM.5 5v.114h-.579V5zm.641 0v.114H.562V5zM-2.7 5v.114h-.583V5zm5.128 0v.114h-.583V5zm.641 0v.114h-.583V5zm.641 0v.114h-.583V5zm.641 0v.114h-.582V5zm.641 0v.114H4.41V5zm-8.919 0v.114h-.583V5zm-2.566 0v.114h-.583V5zm-.641 0v.114h-.583V5zm-.641 0v.114h-.583V5zm6.355 0v.114H-2V5zm-4.432 0v.114h-.583V5zm5.073 0v.114h-.583V5zm-2.507 0v.114h-.583V5zm-5.131 0v.114H-9V5zm6.355 0v.114h-.525V5zm3.848 0v.114H1.2V5z" transform="translate(14.013 7.179)" style="fill:#fff"/>
        <path data-name="Path 241" d="M-1.417-.6v.114H-2V-.6zM-2.7-.6v.114h-.583V-.6zm-3.791 0v.114h-.583V-.6zm6.358 0v.114h-.584V-.6zm.642 0v.114h-.585V-.6zm-7.641 0v.114h-.583V-.6zm3.85 0v.114h-.583V-.6zm7.641 0v.114h-.585V-.6zM5-.6v.114h-.585V-.6zm-9.566 0v.114h-.584V-.6zm-.642 0v.114h-.583V-.6zm-.642 0v.114h-.583V-.6zm5.075 0v.114h-.583V-.6zm-1.283 0v.114h-.525V-.6zm3.208 0v.114H.566V-.6zm2.566 0v.114h-.584V-.6zm-1.925 0v.114h-.584V-.6zm1.283 0v.114h-.583V-.6zm-7 0v.114h-.583V-.6zm6.358 0v.114h-.583V-.6zm-10.207 0v.114h-.583V-.6zm-.642 0v.114H-9V-.6zm6.008-.172v.057h-.058v-.056zm1.283 0v.057h-.058v-.056zm-5.133 0v.057h-.058v-.056zm-1.283 0v.057H-7.6v-.056zM-8.067-1v.229h.058V-1h.058v.229h.058V-1h.058v.286h-.292v-.114H-8.3v.057h.117v.057h-.175v-.172h.233V-1h.058zM3.482-1v.229h.058V-1h.06v.229h.058V-1h.058v.286h-.292v-.114h-.175v.057h.117v.057h-.175v-.172h.233V-1h.058zM-5.5-1v.229h.058V-1h.058v.229h.058V-1h.058v.286h-.292v-.114h-.175v.057h.117v.057h-.175v-.172h.233V-1h.06zm7.7 0v.229h.058V-1h.058v.229h.058V-1h.058v.286h-.291v-.114h-.175v.057h.117v.057h-.234v-.172h.233V-1H2.2zm-5.774.114v.114h.174v-.056h-.117v-.058h.175v.172h-.292v-.114h-.175v.114h-.058v-.172h.292zM-6.784-1v.229h.058V-1h.058v.229h.058V-1h.058v.286h-.292v-.114h-.175v.057h.119v.057h-.175v-.172h.233V-1h.058zm8.341.114v.114h.175v-.056h-.116v-.058h.175v.172H1.5v-.114h-.234v.114h-.059v-.172h.35zm-1.4.114v.057H.1v-.056zm-5.133 0v.057h-.058v-.056zm7.7 0v.057h-.058v-.056zm-7.583-.114v.114h.175v-.056H-4.8v-.058h.175v.172h-.292v-.114h-.175v.114h-.058v-.172h.292zM4.765-1v.229h.058V-1h.058v.229h.059V-1H5v.286h-.293v-.114h-.175v.057h.117v.057h-.234v-.172h.233V-1h.117zM.274-.886v.114h.175v-.056H.332v-.058h.175v.172H.216v-.114H.041v.114h-.117v-.172h.35zm-2.566 0v.114h.175v-.056h-.117v-.058h.175v.172h-.292v-.114h-.175v.114h-.058v-.172h.292zM.916-1v.229h.058V-1h.058v.229h.058V-1h.058v.286H.857v-.114H.682v.057H.8v.057H.566v-.172H.8V-1h.116zm-5.133 0v.229h.058V-1h.059v.229h.058V-1h.058v.286h-.292v-.114h-.174v.057h.117v.057h-.175v-.172h.233V-1h.058zm8.341.114v.114H4.3v-.056h-.118v-.058h.175v.172h-.292v-.114h-.233v.114h-.058v-.172h.35zM-2.934-1v.229h.058V-1h.058v.229h.058V-1h.06v.286h-.292v-.114h-.175v.057h.117v.057h-.175v-.172h.233V-1h.058zm4.375.229v.057h-.059v-.057zm-8.866-.115v.114h.175v-.056h-.117v-.058h.175v.172h-.292v-.114h-.175v.114h-.058v-.172h.292zm11.374.115v.057h-.058v-.057zM2.841-.886v.114h.175v-.056H2.9v-.058h.175v.172h-.293v-.114h-.175v.114h-.058v-.172h.292zm-6.533.114v.057h-.058v-.056zM-.367-1v.229h.058V-1h.058v.229h.058V-1h.058v.286h-.291v-.114H-.6v.057h.117v.057h-.234v-.172h.233V-1h.117zm-1.284 0v.229h.058V-1h.058v.229h.058V-1h.058v.286h-.292v-.114h-.175v.057h.117v.057h-.175v-.172h.233V-1h.058zm.642.114v.114h.175v-.056h-.117v-.058h.175v.172h-.292v-.114h-.175v.114H-1.3v-.172h.292zm-5.133 0v.114h.175v-.056h-.117v-.058h.175v.172H-6.2v-.114h-.175v.114h-.058v-.172h.292zm-2.683.114v.057h-.058v-.056zm.117-.114v.114h.175v-.056h-.117v-.058h.233v.172h-.292v-.114h-.175v.114H-9v-.172h.292zM-5.617-1v.057h-.817V-1zm-2.566 0v.057H-9V-1zm6.416 0v.057h-.817V-1zm1.283 0v.057H-1.3V-1zM-6.9-1v.057h-.817V-1zm8.982 0v.057h-.875V-1zm-6.416 0v.057h-.816V-1zM4.59-1v.057h-.816V-1zm-7.641 0v.057h-.817V-1zm6.417 0v.057h-.817V-1zM.8-1v.057h-.876V-1z" transform="translate(14.006 9.928)" style="fill:#fff"/>
        <g>
            <path data-name="Line 146" transform="translate(218.731 3.115)" style="stroke:#707070;fill:none" d="M0 0v6"/>
            <path data-name="Line 147" transform="translate(199.731 3.115)" style="stroke:#707070;fill:none" d="M0 0v6"/>
            <path data-name="Path 243" d="M-20640.467 9307.115v2.913h-7.619v2.672h-4.979" transform="translate(20855.231 -9304)" style="stroke:#707070;fill:none"/>
            <path data-name="Path 244" d="M-20659.062 9307.5v3.6l-1.437 1.129h-5.291l-1.437-1.129v-3.6" transform="translate(20855.231 -9304)" style="stroke:#707070;fill:none"/>
            <g data-name="Rectangle 1167" style="fill:#4a4a4a;stroke:#707070">
                <path style="stroke:none" d="M0 0h1.5v1.5H0z" transform="translate(191.231 4)"/>
                <path style="fill:none" d="M.5.5H1V1H.5z" transform="translate(191.231 4)"/>
            </g>
            <g data-name="Rectangle 1168" style="fill:#4a4a4a;stroke:#707070">
                <path style="stroke:none" d="M0 0h1.5v1.5H0z" transform="translate(210.231 7)"/>
                <path style="fill:none" d="M.5.5H1V1H.5z" transform="translate(210.231 7)"/>
            </g>
            <g data-name="Rectangle 1169" style="fill:#4a4a4a;stroke:#707070">
                <path style="stroke:none" d="M0 0h1.5v1.5H0z" transform="translate(213.231 7)"/>
                <path style="fill:none" d="M.5.5H1V1H.5z" transform="translate(213.231 7)"/>
            </g>
        </g>
    </g>
</svg>
