<?xml version="1.0" encoding="UTF-8" standalone="no"?>
<!DOCTYPE svg PUBLIC "-//W3C//DTD SVG 1.1//EN" "http://www.w3.org/Graphics/SVG/1.1/DTD/svg11.dtd">
<svg xmlns="http://www.w3.org/2000/svg" version="1.1" viewBox="0 0 1210 566">
<g stroke-width="2.00" fill="none" stroke-linecap="butt">
<path stroke="#a08e2b" stroke-opacity="0.949" vector-effect="non-scaling-stroke" d="
  M 322.74 284.21
  L 322.73 283.51"
/>
<path stroke="#a08e2b" stroke-opacity="0.949" vector-effect="non-scaling-stroke" d="
  M 319.75 283.79
  L 319.75 284.21"
/>
<path stroke="#a08e2b" stroke-opacity="0.949" vector-effect="non-scaling-stroke" d="
  M 271.00 294.04
  L 270.50 293.79"
/>
<path stroke="#a08e2b" stroke-opacity="0.949" vector-effect="non-scaling-stroke" d="
  M 254.00 299.04
  L 253.71 298.75"
/>
</g>
<path fill="#2957a4" d="
  M 950.44 566.00
  L 625.44 566.00
  Q 486.66 285.35 348.65 4.33
  Q 347.93 2.86 347.40 2.06
  Q 346.37 0.51 348.24 0.51
  Q 638.59 0.48 928.93 0.52
  Q 942.07 0.52 948.92 0.92
  C 1080.04 8.58 1182.53 113.70 1189.27 244.25
  Q 1189.92 256.96 1189.16 315.18
  C 1187.41 449.24 1082.90 556.58 950.44 566.00
  Z
  M 758.46 425.81
  A 0.29 0.29 89.9 0 1 758.75 426.10
  L 758.75 507.69
  A 0.31 0.31 90.0 0 0 759.06 508.00
  Q 855.40 508.00 951.76 508.09
  Q 1013.88 508.15 1062.23 469.95
  C 1130.89 415.70 1158.46 324.36 1144.23 239.76
  C 1129.12 149.87 1062.99 67.28 967.22 59.53
  Q 960.41 58.98 947.26 58.98
  Q 853.16 59.02 759.07 58.99
  A 0.32 0.32 -0.0 0 0 758.75 59.31
  L 758.75 140.15
  A 0.86 0.85 -0.0 0 1 757.89 141.00
  L 593.55 141.00
  A 0.80 0.80 -89.9 0 0 592.75 141.80
  L 592.75 425.27
  A 0.67 0.67 -90.0 0 0 593.42 425.94
  L 758.46 425.81
  Z"
/>
<path fill="#ffcc29" d="
  M 291.74 16.09
  Q 292.87 13.79 294.17 11.71
  Q 294.43 11.28 294.65 11.72
  L 410.67 247.35
  Q 410.99 248.01 410.36 247.62
  C 334.43 200.22 247.65 219.47 173.41 257.91
  Q 172.63 258.31 173.02 257.53
  Q 232.38 136.80 291.74 16.09
  Z"
/>
<path fill="#2957a4" d="
  M 969.90 92.79
  C 1021.05 98.49 1063.24 132.46 1087.57 176.44
  C 1117.51 230.56 1123.14 294.67 1103.91 353.35
  C 1082.24 419.50 1028.00 474.66 954.75 474.81
  Q 873.28 474.97 791.85 475.01
  A 0.30 0.30 -0.0 0 1 791.55 474.71
  L 791.63 420.46
  A 0.71 0.70 80.9 0 1 792.11 419.79
  C 845.74 401.27 881.08 353.79 881.27 297.00
  C 881.31 283.63 881.72 268.42 880.53 256.59
  C 875.39 205.65 840.45 163.17 792.17 147.28
  A 0.95 0.94 8.9 0 1 791.51 146.38
  L 791.55 92.53
  A 0.51 0.50 -90.0 0 1 792.05 92.02
  Q 871.00 91.96 949.92 92.02
  Q 963.17 92.04 969.90 92.79
  Z"
/>
<path fill="#fcd223" fill-opacity="0.992" d="
  M 322.74 284.21
  L 322.73 283.51
  Q 334.63 282.77 348.25 283.11
  Q 351.74 283.19 354.48 283.72
  A 0.34 0.32 23.5 0 1 354.70 284.24
  C 353.70 285.50 339.79 283.13 336.25 283.74
  Q 332.00 284.46 322.74 284.21
  Z"
/>
<path fill="#fcd223" fill-opacity="0.992" d="
  M 319.75 283.79
  L 319.75 284.21
  Q 313.30 286.16 306.55 286.38
  A 0.88 0.46 -4.5 0 1 305.73 286.03
  C 305.34 284.72 318.49 283.86 319.75 283.79
  Z"
/>
<path fill="#3b4433" fill-opacity="0.906" d="
  M 319.75 283.79
  L 322.73 283.51
  L 322.74 284.21
  L 319.75 284.21
  L 319.75 283.79
  Z"
/>
<path fill="#fcd223" fill-opacity="0.992" d="
  M 359.73 285.14
  C 359.06 284.97 358.32 284.22 359.76 284.21
  Q 365.07 284.17 373.01 286.94
  Q 373.48 287.11 372.98 287.09
  Q 366.23 286.77 359.73 285.14
  Z"
/>
<rect fill="#fcd223" fill-opacity="0.992" x="-6.51" y="-0.61" transform="translate(294.98,287.84) rotate(-11.8)" width="13.02" height="1.22" rx="0.59"/>
<path fill="#fcd223" fill-opacity="0.992" d="
  M 376.11 288.22
  C 374.02 287.45 376.37 287.41 376.95 287.55
  Q 383.64 289.14 387.35 290.81
  Q 393.09 293.39 387.02 291.73
  Q 381.48 290.20 376.11 288.22
  Z"
/>
<path fill="#fcd223" fill-opacity="0.992" d="
  M 271.00 294.04
  L 270.50 293.79
  C 271.39 293.32 285.36 288.02 284.46 290.29
  A 0.82 0.54 -3.7 0 1 283.94 290.68
  L 271.00 294.04
  Z"
/>
<rect fill="#fcd223" fill-opacity="0.992" x="-6.91" y="-0.41" transform="translate(397.84,295.91) rotate(26.6)" width="13.82" height="0.82" rx="0.38"/>
<path fill="#3b4433" fill-opacity="0.906" d="
  M 270.50 293.79
  L 271.00 294.04
  Q 266.59 294.30 270.50 293.79
  Z"
/>
<path fill="#fcd223" fill-opacity="0.992" d="
  M 254.00 299.04
  L 253.71 298.75
  Q 259.86 295.55 266.76 294.52
  A 0.56 0.34 -19.2 0 1 267.20 294.61
  Q 267.39 294.80 266.99 294.96
  Q 260.61 297.39 254.00 299.04
  Z"
/>
<path fill="#3b4433" fill-opacity="0.906" d="
  M 253.71 298.75
  L 254.00 299.04
  Q 249.64 299.67 253.71 298.75
  Z"
/>
<ellipse fill="#fcd223" fill-opacity="0.992" cx="0.00" cy="0.00" transform="translate(244.32,302.17) rotate(-20.1)" rx="6.90" ry="0.58"/>
<ellipse fill="#e5c325" fill-opacity="0.988" cx="0.00" cy="0.00" transform="translate(413.79,305.43) rotate(34.5)" rx="5.91" ry="0.50"/>
<rect fill="#f2cf36" fill-opacity="0.988" x="-6.15" y="-0.46" transform="translate(227.62,308.51) rotate(-23.4)" width="12.30" height="0.92" rx="0.45"/>
<ellipse fill="#f2cf36" fill-opacity="0.988" cx="0.00" cy="0.00" transform="translate(211.04,315.72) rotate(-23.7)" rx="6.76" ry="0.56"/>
<rect fill="#d9af2e" fill-opacity="0.988" x="-6.21" y="-0.42" transform="translate(427.47,317.49) rotate(45.0)" width="12.42" height="0.84" rx="0.39"/>
<rect fill="#f2cf36" fill-opacity="0.988" x="-6.91" y="-0.42" transform="translate(195.00,323.49) rotate(-26.7)" width="13.82" height="0.84" rx="0.41"/>
<path fill="#d9c847" fill-opacity="0.996" d="
  M 435.09 325.72
  Q 434.73 325.13 435.50 326.01
  Q 439.25 330.30 442.03 335.32
  Q 442.41 336.01 441.81 335.93
  C 441.16 335.85 435.80 326.89 435.09 325.72
  Z"
/>
<ellipse fill="#f2cf36" fill-opacity="0.988" cx="0.00" cy="0.00" transform="translate(179.49,331.65) rotate(-27.7)" rx="6.21" ry="0.47"/>
<ellipse fill="#f2cf36" fill-opacity="0.988" cx="0.00" cy="0.00" transform="translate(164.13,340.39) rotate(-30.4)" rx="6.85" ry="0.50"/>
<rect fill="#d9c847" fill-opacity="0.996" x="-0.42" y="-6.19" transform="translate(448.16,346.36) rotate(-26.8)" width="0.84" height="12.38" rx="0.41"/>
<rect fill="#f2cf36" fill-opacity="0.988" x="-6.42" y="-0.42" transform="translate(148.74,349.72) rotate(-31.2)" width="12.84" height="0.84" rx="0.27"/>
<path fill="#e5c325" fill-opacity="0.988" d="
  M 452.64 356.48
  Q 452.25 355.41 453.13 356.34
  C 454.79 358.09 456.36 364.47 456.82 366.92
  C 456.91 367.36 456.44 369.36 455.90 367.16
  Q 454.58 361.73 452.64 356.48
  Z"
/>
<path fill="#ffcc29" d="
  M 303.94 566.00
  L 21.19 566.00
  L 45.73 515.88
  A 1.14 1.07 3.7 0 1 46.43 515.30
  C 47.85 514.89 48.75 514.91 49.80 513.71
  C 93.34 463.51 145.41 421.53 204.79 392.12
  C 241.00 374.18 282.91 363.44 322.99 358.92
  C 361.16 354.61 433.40 357.49 417.33 418.74
  Q 411.48 441.00 398.89 460.22
  Q 394.74 466.54 387.06 474.91
  Q 345.37 520.34 303.94 566.00
  Z"
/>
<path fill="#ffcc29" d="
  M 566.69 566.00
  L 358.91 565.97
  C 386.86 534.41 412.09 500.51 436.01 465.82
  C 443.43 455.07 453.59 440.80 461.33 428.08
  C 471.51 411.33 473.97 390.65 471.03 371.26
  Q 470.96 370.76 471.27 370.83
  A 0.71 0.43 73.7 0 1 471.69 371.22
  Q 519.42 468.26 567.22 565.26
  Q 567.43 565.68 566.69 566.00
  Z"
/>
<path fill="#fcd223" fill-opacity="0.992" d="
  M 456.78 372.83
  C 458.62 371.28 458.46 383.85 456.79 385.83
  C 455.72 387.09 456.07 384.71 456.04 384.32
  Q 455.71 378.98 456.37 373.68
  A 1.52 1.03 81.5 0 1 456.78 372.83
  Z"
/>
<ellipse fill="#ffcc29" cx="0.00" cy="0.00" transform="translate(454.09,396.64) rotate(104.9)" rx="6.79" ry="0.66"/>
<ellipse fill="#f2cf36" fill-opacity="0.988" cx="0.00" cy="0.00" transform="translate(447.99,413.63) rotate(114.4)" rx="6.07" ry="0.53"/>
<ellipse fill="#f2cf36" fill-opacity="0.988" cx="0.00" cy="0.00" transform="translate(440.14,429.63) rotate(116.4)" rx="6.23" ry="0.49"/>
<rect fill="#d9af2e" fill-opacity="0.988" x="-0.43" y="-6.29" transform="translate(431.66,444.52) rotate(31.1)" width="0.86" height="12.58" rx="0.42"/>
<rect fill="#d9af2e" fill-opacity="0.988" x="-0.40" y="-5.95" transform="translate(421.44,460.22) rotate(34.9)" width="0.80" height="11.90" rx="0.32"/>
<rect fill="#d9af2e" fill-opacity="0.988" x="-0.40" y="-6.57" transform="translate(411.96,473.78) rotate(36.9)" width="0.80" height="13.14" rx="0.37"/>
<rect fill="#d9af2e" fill-opacity="0.988" x="-0.38" y="-6.31" transform="translate(401.01,488.13) rotate(37.6)" width="0.76" height="12.62" rx="0.36"/>
<rect fill="#c8a436" fill-opacity="0.976" x="-0.36" y="-6.63" transform="translate(389.60,502.00) rotate(40.2)" width="0.72" height="13.26" rx="0.35"/>
<ellipse fill="#d9af2e" fill-opacity="0.988" cx="0.00" cy="0.00" transform="translate(377.81,516.20) rotate(129.3)" rx="6.14" ry="0.49"/>
<ellipse fill="#c8a436" fill-opacity="0.976" cx="0.00" cy="0.00" transform="translate(366.40,529.10) rotate(130.6)" rx="6.51" ry="0.42"/>
<rect fill="#c8a436" fill-opacity="0.976" x="-0.35" y="-6.51" transform="translate(354.48,542.19) rotate(41.7)" width="0.70" height="13.02" rx="0.27"/>
<rect fill="#c8a436" fill-opacity="0.976" x="-6.05" y="-0.31" transform="translate(342.43,554.64) rotate(-45.0)" width="12.10" height="0.62" rx="0.29"/>
<path fill="#d9af2e" fill-opacity="0.988" d="
  M 332.19 566.00
  L 331.19 566.00
  Q 335.24 560.16 332.19 566.00
  Z"
/>
</svg>
